<?xml version="1.0" encoding="utf-8" standalone="no"?>
<!DOCTYPE svg PUBLIC "-//W3C//DTD SVG 1.1//EN"
  "http://www.w3.org/Graphics/SVG/1.1/DTD/svg11.dtd">
<svg xmlns:xlink="http://www.w3.org/1999/xlink" width="460.8pt" height="345.6pt" viewBox="0 0 460.8 345.6" xmlns="http://www.w3.org/2000/svg" version="1.1">
 <metadata>
  <rdf:RDF xmlns:dc="http://purl.org/dc/elements/1.1/" xmlns:cc="http://creativecommons.org/ns#" xmlns:rdf="http://www.w3.org/1999/02/22-rdf-syntax-ns#">
   <cc:Work>
    <dc:type rdf:resource="http://purl.org/dc/dcmitype/StillImage"/>
    <dc:date>2024-04-16T14:46:49.247794</dc:date>
    <dc:format>image/svg+xml</dc:format>
    <dc:creator>
     <cc:Agent>
      <dc:title>Matplotlib v3.8.2, https://matplotlib.org/</dc:title>
     </cc:Agent>
    </dc:creator>
   </cc:Work>
  </rdf:RDF>
 </metadata>
 <defs>
  <style type="text/css">*{stroke-linejoin: round; stroke-linecap: butt}</style>
 </defs>
 <g id="figure_1">
  <g id="patch_1">
   <path d="M 0 345.6 
L 460.8 345.6 
L 460.8 0 
L 0 0 
z
" style="fill: #ffffff"/>
  </g>
  <g id="axes_1">
   <g id="patch_2">
    <path d="M 57.6 307.584 
L 414.72 307.584 
L 414.72 41.472 
L 57.6 41.472 
z
" style="fill: #ffffff"/>
   </g>
   <g id="matplotlib.axis_1">
    <g id="xtick_1">
     <g id="line2d_1">
      <defs>
       <path id="mbf12007a36" d="M 0 0 
L 0 3.5 
" style="stroke: #000000; stroke-width: 0.8"/>
      </defs>
      <g>
       <use xlink:href="#mbf12007a36" x="83.28465" y="307.584" style="stroke: #000000; stroke-width: 0.8"/>
      </g>
     </g>
     <g id="text_1">
      <!-- $\mathdefault{2^{8}}$ -->
      <g transform="translate(77.68465 322.182437) scale(0.1 -0.1)">
       <defs>
        <path id="DejaVuSans-32" d="M 1228 531 
L 3431 531 
L 3431 0 
L 469 0 
L 469 531 
Q 828 903 1448 1529 
Q 2069 2156 2228 2338 
Q 2531 2678 2651 2914 
Q 2772 3150 2772 3378 
Q 2772 3750 2511 3984 
Q 2250 4219 1831 4219 
Q 1534 4219 1204 4116 
Q 875 4013 500 3803 
L 500 4441 
Q 881 4594 1212 4672 
Q 1544 4750 1819 4750 
Q 2544 4750 2975 4387 
Q 3406 4025 3406 3419 
Q 3406 3131 3298 2873 
Q 3191 2616 2906 2266 
Q 2828 2175 2409 1742 
Q 1991 1309 1228 531 
z
" transform="scale(0.015625)"/>
        <path id="DejaVuSans-38" d="M 2034 2216 
Q 1584 2216 1326 1975 
Q 1069 1734 1069 1313 
Q 1069 891 1326 650 
Q 1584 409 2034 409 
Q 2484 409 2743 651 
Q 3003 894 3003 1313 
Q 3003 1734 2745 1975 
Q 2488 2216 2034 2216 
z
M 1403 2484 
Q 997 2584 770 2862 
Q 544 3141 544 3541 
Q 544 4100 942 4425 
Q 1341 4750 2034 4750 
Q 2731 4750 3128 4425 
Q 3525 4100 3525 3541 
Q 3525 3141 3298 2862 
Q 3072 2584 2669 2484 
Q 3125 2378 3379 2068 
Q 3634 1759 3634 1313 
Q 3634 634 3220 271 
Q 2806 -91 2034 -91 
Q 1263 -91 848 271 
Q 434 634 434 1313 
Q 434 1759 690 2068 
Q 947 2378 1403 2484 
z
M 1172 3481 
Q 1172 3119 1398 2916 
Q 1625 2713 2034 2713 
Q 2441 2713 2670 2916 
Q 2900 3119 2900 3481 
Q 2900 3844 2670 4047 
Q 2441 4250 2034 4250 
Q 1625 4250 1398 4047 
Q 1172 3844 1172 3481 
z
" transform="scale(0.015625)"/>
       </defs>
       <use xlink:href="#DejaVuSans-32" transform="translate(0 0.765625)"/>
       <use xlink:href="#DejaVuSans-38" transform="translate(64.580078 39.046875) scale(0.7)"/>
      </g>
     </g>
    </g>
    <g id="xtick_2">
     <g id="line2d_2">
      <g>
       <use xlink:href="#mbf12007a36" x="125.894119" y="307.584" style="stroke: #000000; stroke-width: 0.8"/>
      </g>
     </g>
     <g id="text_2">
      <!-- $\mathdefault{2^{10}}$ -->
      <g transform="translate(118.044119 322.182437) scale(0.1 -0.1)">
       <defs>
        <path id="DejaVuSans-31" d="M 794 531 
L 1825 531 
L 1825 4091 
L 703 3866 
L 703 4441 
L 1819 4666 
L 2450 4666 
L 2450 531 
L 3481 531 
L 3481 0 
L 794 0 
L 794 531 
z
" transform="scale(0.015625)"/>
        <path id="DejaVuSans-30" d="M 2034 4250 
Q 1547 4250 1301 3770 
Q 1056 3291 1056 2328 
Q 1056 1369 1301 889 
Q 1547 409 2034 409 
Q 2525 409 2770 889 
Q 3016 1369 3016 2328 
Q 3016 3291 2770 3770 
Q 2525 4250 2034 4250 
z
M 2034 4750 
Q 2819 4750 3233 4129 
Q 3647 3509 3647 2328 
Q 3647 1150 3233 529 
Q 2819 -91 2034 -91 
Q 1250 -91 836 529 
Q 422 1150 422 2328 
Q 422 3509 836 4129 
Q 1250 4750 2034 4750 
z
" transform="scale(0.015625)"/>
       </defs>
       <use xlink:href="#DejaVuSans-32" transform="translate(0 0.765625)"/>
       <use xlink:href="#DejaVuSans-31" transform="translate(64.580078 39.046875) scale(0.7)"/>
       <use xlink:href="#DejaVuSans-30" transform="translate(109.116211 39.046875) scale(0.7)"/>
      </g>
     </g>
    </g>
    <g id="xtick_3">
     <g id="line2d_3">
      <g>
       <use xlink:href="#mbf12007a36" x="168.503589" y="307.584" style="stroke: #000000; stroke-width: 0.8"/>
      </g>
     </g>
     <g id="text_3">
      <!-- $\mathdefault{2^{12}}$ -->
      <g transform="translate(160.653589 322.182437) scale(0.1 -0.1)">
       <use xlink:href="#DejaVuSans-32" transform="translate(0 0.765625)"/>
       <use xlink:href="#DejaVuSans-31" transform="translate(64.580078 39.046875) scale(0.7)"/>
       <use xlink:href="#DejaVuSans-32" transform="translate(109.116211 39.046875) scale(0.7)"/>
      </g>
     </g>
    </g>
    <g id="xtick_4">
     <g id="line2d_4">
      <g>
       <use xlink:href="#mbf12007a36" x="211.113058" y="307.584" style="stroke: #000000; stroke-width: 0.8"/>
      </g>
     </g>
     <g id="text_4">
      <!-- $\mathdefault{2^{14}}$ -->
      <g transform="translate(203.263058 322.182437) scale(0.1 -0.1)">
       <defs>
        <path id="DejaVuSans-34" d="M 2419 4116 
L 825 1625 
L 2419 1625 
L 2419 4116 
z
M 2253 4666 
L 3047 4666 
L 3047 1625 
L 3713 1625 
L 3713 1100 
L 3047 1100 
L 3047 0 
L 2419 0 
L 2419 1100 
L 313 1100 
L 313 1709 
L 2253 4666 
z
" transform="scale(0.015625)"/>
       </defs>
       <use xlink:href="#DejaVuSans-32" transform="translate(0 0.684375)"/>
       <use xlink:href="#DejaVuSans-31" transform="translate(64.580078 38.965625) scale(0.7)"/>
       <use xlink:href="#DejaVuSans-34" transform="translate(109.116211 38.965625) scale(0.7)"/>
      </g>
     </g>
    </g>
    <g id="xtick_5">
     <g id="line2d_5">
      <g>
       <use xlink:href="#mbf12007a36" x="253.722528" y="307.584" style="stroke: #000000; stroke-width: 0.8"/>
      </g>
     </g>
     <g id="text_5">
      <!-- $\mathdefault{2^{16}}$ -->
      <g transform="translate(245.872528 322.182437) scale(0.1 -0.1)">
       <defs>
        <path id="DejaVuSans-36" d="M 2113 2584 
Q 1688 2584 1439 2293 
Q 1191 2003 1191 1497 
Q 1191 994 1439 701 
Q 1688 409 2113 409 
Q 2538 409 2786 701 
Q 3034 994 3034 1497 
Q 3034 2003 2786 2293 
Q 2538 2584 2113 2584 
z
M 3366 4563 
L 3366 3988 
Q 3128 4100 2886 4159 
Q 2644 4219 2406 4219 
Q 1781 4219 1451 3797 
Q 1122 3375 1075 2522 
Q 1259 2794 1537 2939 
Q 1816 3084 2150 3084 
Q 2853 3084 3261 2657 
Q 3669 2231 3669 1497 
Q 3669 778 3244 343 
Q 2819 -91 2113 -91 
Q 1303 -91 875 529 
Q 447 1150 447 2328 
Q 447 3434 972 4092 
Q 1497 4750 2381 4750 
Q 2619 4750 2861 4703 
Q 3103 4656 3366 4563 
z
" transform="scale(0.015625)"/>
       </defs>
       <use xlink:href="#DejaVuSans-32" transform="translate(0 0.765625)"/>
       <use xlink:href="#DejaVuSans-31" transform="translate(64.580078 39.046875) scale(0.7)"/>
       <use xlink:href="#DejaVuSans-36" transform="translate(109.116211 39.046875) scale(0.7)"/>
      </g>
     </g>
    </g>
    <g id="xtick_6">
     <g id="line2d_6">
      <g>
       <use xlink:href="#mbf12007a36" x="296.331997" y="307.584" style="stroke: #000000; stroke-width: 0.8"/>
      </g>
     </g>
     <g id="text_6">
      <!-- $\mathdefault{2^{18}}$ -->
      <g transform="translate(288.481997 322.182437) scale(0.1 -0.1)">
       <use xlink:href="#DejaVuSans-32" transform="translate(0 0.765625)"/>
       <use xlink:href="#DejaVuSans-31" transform="translate(64.580078 39.046875) scale(0.7)"/>
       <use xlink:href="#DejaVuSans-38" transform="translate(109.116211 39.046875) scale(0.7)"/>
      </g>
     </g>
    </g>
    <g id="xtick_7">
     <g id="line2d_7">
      <g>
       <use xlink:href="#mbf12007a36" x="338.941466" y="307.584" style="stroke: #000000; stroke-width: 0.8"/>
      </g>
     </g>
     <g id="text_7">
      <!-- $\mathdefault{2^{20}}$ -->
      <g transform="translate(331.091466 322.182437) scale(0.1 -0.1)">
       <use xlink:href="#DejaVuSans-32" transform="translate(0 0.765625)"/>
       <use xlink:href="#DejaVuSans-32" transform="translate(64.580078 39.046875) scale(0.7)"/>
       <use xlink:href="#DejaVuSans-30" transform="translate(109.116211 39.046875) scale(0.7)"/>
      </g>
     </g>
    </g>
    <g id="xtick_8">
     <g id="line2d_8">
      <g>
       <use xlink:href="#mbf12007a36" x="381.550936" y="307.584" style="stroke: #000000; stroke-width: 0.8"/>
      </g>
     </g>
     <g id="text_8">
      <!-- $\mathdefault{2^{22}}$ -->
      <g transform="translate(373.700936 322.182437) scale(0.1 -0.1)">
       <use xlink:href="#DejaVuSans-32" transform="translate(0 0.765625)"/>
       <use xlink:href="#DejaVuSans-32" transform="translate(64.580078 39.046875) scale(0.7)"/>
       <use xlink:href="#DejaVuSans-32" transform="translate(109.116211 39.046875) scale(0.7)"/>
      </g>
     </g>
    </g>
    <g id="text_9">
     <!-- Array size -->
     <g transform="translate(211.409219 335.860562) scale(0.1 -0.1)">
      <defs>
       <path id="DejaVuSans-41" d="M 2188 4044 
L 1331 1722 
L 3047 1722 
L 2188 4044 
z
M 1831 4666 
L 2547 4666 
L 4325 0 
L 3669 0 
L 3244 1197 
L 1141 1197 
L 716 0 
L 50 0 
L 1831 4666 
z
" transform="scale(0.015625)"/>
       <path id="DejaVuSans-72" d="M 2631 2963 
Q 2534 3019 2420 3045 
Q 2306 3072 2169 3072 
Q 1681 3072 1420 2755 
Q 1159 2438 1159 1844 
L 1159 0 
L 581 0 
L 581 3500 
L 1159 3500 
L 1159 2956 
Q 1341 3275 1631 3429 
Q 1922 3584 2338 3584 
Q 2397 3584 2469 3576 
Q 2541 3569 2628 3553 
L 2631 2963 
z
" transform="scale(0.015625)"/>
       <path id="DejaVuSans-61" d="M 2194 1759 
Q 1497 1759 1228 1600 
Q 959 1441 959 1056 
Q 959 750 1161 570 
Q 1363 391 1709 391 
Q 2188 391 2477 730 
Q 2766 1069 2766 1631 
L 2766 1759 
L 2194 1759 
z
M 3341 1997 
L 3341 0 
L 2766 0 
L 2766 531 
Q 2569 213 2275 61 
Q 1981 -91 1556 -91 
Q 1019 -91 701 211 
Q 384 513 384 1019 
Q 384 1609 779 1909 
Q 1175 2209 1959 2209 
L 2766 2209 
L 2766 2266 
Q 2766 2663 2505 2880 
Q 2244 3097 1772 3097 
Q 1472 3097 1187 3025 
Q 903 2953 641 2809 
L 641 3341 
Q 956 3463 1253 3523 
Q 1550 3584 1831 3584 
Q 2591 3584 2966 3190 
Q 3341 2797 3341 1997 
z
" transform="scale(0.015625)"/>
       <path id="DejaVuSans-79" d="M 2059 -325 
Q 1816 -950 1584 -1140 
Q 1353 -1331 966 -1331 
L 506 -1331 
L 506 -850 
L 844 -850 
Q 1081 -850 1212 -737 
Q 1344 -625 1503 -206 
L 1606 56 
L 191 3500 
L 800 3500 
L 1894 763 
L 2988 3500 
L 3597 3500 
L 2059 -325 
z
" transform="scale(0.015625)"/>
       <path id="DejaVuSans-20" transform="scale(0.015625)"/>
       <path id="DejaVuSans-73" d="M 2834 3397 
L 2834 2853 
Q 2591 2978 2328 3040 
Q 2066 3103 1784 3103 
Q 1356 3103 1142 2972 
Q 928 2841 928 2578 
Q 928 2378 1081 2264 
Q 1234 2150 1697 2047 
L 1894 2003 
Q 2506 1872 2764 1633 
Q 3022 1394 3022 966 
Q 3022 478 2636 193 
Q 2250 -91 1575 -91 
Q 1294 -91 989 -36 
Q 684 19 347 128 
L 347 722 
Q 666 556 975 473 
Q 1284 391 1588 391 
Q 1994 391 2212 530 
Q 2431 669 2431 922 
Q 2431 1156 2273 1281 
Q 2116 1406 1581 1522 
L 1381 1569 
Q 847 1681 609 1914 
Q 372 2147 372 2553 
Q 372 3047 722 3315 
Q 1072 3584 1716 3584 
Q 2034 3584 2315 3537 
Q 2597 3491 2834 3397 
z
" transform="scale(0.015625)"/>
       <path id="DejaVuSans-69" d="M 603 3500 
L 1178 3500 
L 1178 0 
L 603 0 
L 603 3500 
z
M 603 4863 
L 1178 4863 
L 1178 4134 
L 603 4134 
L 603 4863 
z
" transform="scale(0.015625)"/>
       <path id="DejaVuSans-7a" d="M 353 3500 
L 3084 3500 
L 3084 2975 
L 922 459 
L 3084 459 
L 3084 0 
L 275 0 
L 275 525 
L 2438 3041 
L 353 3041 
L 353 3500 
z
" transform="scale(0.015625)"/>
       <path id="DejaVuSans-65" d="M 3597 1894 
L 3597 1613 
L 953 1613 
Q 991 1019 1311 708 
Q 1631 397 2203 397 
Q 2534 397 2845 478 
Q 3156 559 3463 722 
L 3463 178 
Q 3153 47 2828 -22 
Q 2503 -91 2169 -91 
Q 1331 -91 842 396 
Q 353 884 353 1716 
Q 353 2575 817 3079 
Q 1281 3584 2069 3584 
Q 2775 3584 3186 3129 
Q 3597 2675 3597 1894 
z
M 3022 2063 
Q 3016 2534 2758 2815 
Q 2500 3097 2075 3097 
Q 1594 3097 1305 2825 
Q 1016 2553 972 2059 
L 3022 2063 
z
" transform="scale(0.015625)"/>
      </defs>
      <use xlink:href="#DejaVuSans-41"/>
      <use xlink:href="#DejaVuSans-72" x="68.408203"/>
      <use xlink:href="#DejaVuSans-72" x="107.771484"/>
      <use xlink:href="#DejaVuSans-61" x="148.884766"/>
      <use xlink:href="#DejaVuSans-79" x="210.164062"/>
      <use xlink:href="#DejaVuSans-20" x="269.34375"/>
      <use xlink:href="#DejaVuSans-73" x="301.130859"/>
      <use xlink:href="#DejaVuSans-69" x="353.230469"/>
      <use xlink:href="#DejaVuSans-7a" x="381.013672"/>
      <use xlink:href="#DejaVuSans-65" x="433.503906"/>
     </g>
    </g>
   </g>
   <g id="matplotlib.axis_2">
    <g id="ytick_1">
     <g id="line2d_9">
      <defs>
       <path id="m9bb5f6760f" d="M 0 0 
L -3.5 0 
" style="stroke: #000000; stroke-width: 0.8"/>
      </defs>
      <g>
       <use xlink:href="#m9bb5f6760f" x="57.6" y="307.584" style="stroke: #000000; stroke-width: 0.8"/>
      </g>
     </g>
     <g id="text_10">
      <!-- 0 -->
      <g transform="translate(44.2375 311.383219) scale(0.1 -0.1)">
       <use xlink:href="#DejaVuSans-30"/>
      </g>
     </g>
    </g>
    <g id="ytick_2">
     <g id="line2d_10">
      <g>
       <use xlink:href="#m9bb5f6760f" x="57.6" y="266.533424" style="stroke: #000000; stroke-width: 0.8"/>
      </g>
     </g>
     <g id="text_11">
      <!-- 50 -->
      <g transform="translate(37.875 270.332643) scale(0.1 -0.1)">
       <defs>
        <path id="DejaVuSans-35" d="M 691 4666 
L 3169 4666 
L 3169 4134 
L 1269 4134 
L 1269 2991 
Q 1406 3038 1543 3061 
Q 1681 3084 1819 3084 
Q 2600 3084 3056 2656 
Q 3513 2228 3513 1497 
Q 3513 744 3044 326 
Q 2575 -91 1722 -91 
Q 1428 -91 1123 -41 
Q 819 9 494 109 
L 494 744 
Q 775 591 1075 516 
Q 1375 441 1709 441 
Q 2250 441 2565 725 
Q 2881 1009 2881 1497 
Q 2881 1984 2565 2268 
Q 2250 2553 1709 2553 
Q 1456 2553 1204 2497 
Q 953 2441 691 2322 
L 691 4666 
z
" transform="scale(0.015625)"/>
       </defs>
       <use xlink:href="#DejaVuSans-35"/>
       <use xlink:href="#DejaVuSans-30" x="63.623047"/>
      </g>
     </g>
    </g>
    <g id="ytick_3">
     <g id="line2d_11">
      <g>
       <use xlink:href="#m9bb5f6760f" x="57.6" y="225.482848" style="stroke: #000000; stroke-width: 0.8"/>
      </g>
     </g>
     <g id="text_12">
      <!-- 100 -->
      <g transform="translate(31.5125 229.282067) scale(0.1 -0.1)">
       <use xlink:href="#DejaVuSans-31"/>
       <use xlink:href="#DejaVuSans-30" x="63.623047"/>
       <use xlink:href="#DejaVuSans-30" x="127.246094"/>
      </g>
     </g>
    </g>
    <g id="ytick_4">
     <g id="line2d_12">
      <g>
       <use xlink:href="#m9bb5f6760f" x="57.6" y="184.432272" style="stroke: #000000; stroke-width: 0.8"/>
      </g>
     </g>
     <g id="text_13">
      <!-- 150 -->
      <g transform="translate(31.5125 188.231491) scale(0.1 -0.1)">
       <use xlink:href="#DejaVuSans-31"/>
       <use xlink:href="#DejaVuSans-35" x="63.623047"/>
       <use xlink:href="#DejaVuSans-30" x="127.246094"/>
      </g>
     </g>
    </g>
    <g id="ytick_5">
     <g id="line2d_13">
      <g>
       <use xlink:href="#m9bb5f6760f" x="57.6" y="143.381697" style="stroke: #000000; stroke-width: 0.8"/>
      </g>
     </g>
     <g id="text_14">
      <!-- 200 -->
      <g transform="translate(31.5125 147.180915) scale(0.1 -0.1)">
       <use xlink:href="#DejaVuSans-32"/>
       <use xlink:href="#DejaVuSans-30" x="63.623047"/>
       <use xlink:href="#DejaVuSans-30" x="127.246094"/>
      </g>
     </g>
    </g>
    <g id="ytick_6">
     <g id="line2d_14">
      <g>
       <use xlink:href="#m9bb5f6760f" x="57.6" y="102.331121" style="stroke: #000000; stroke-width: 0.8"/>
      </g>
     </g>
     <g id="text_15">
      <!-- 250 -->
      <g transform="translate(31.5125 106.130339) scale(0.1 -0.1)">
       <use xlink:href="#DejaVuSans-32"/>
       <use xlink:href="#DejaVuSans-35" x="63.623047"/>
       <use xlink:href="#DejaVuSans-30" x="127.246094"/>
      </g>
     </g>
    </g>
    <g id="ytick_7">
     <g id="line2d_15">
      <g>
       <use xlink:href="#m9bb5f6760f" x="57.6" y="61.280545" style="stroke: #000000; stroke-width: 0.8"/>
      </g>
     </g>
     <g id="text_16">
      <!-- 300 -->
      <g transform="translate(31.5125 65.079764) scale(0.1 -0.1)">
       <defs>
        <path id="DejaVuSans-33" d="M 2597 2516 
Q 3050 2419 3304 2112 
Q 3559 1806 3559 1356 
Q 3559 666 3084 287 
Q 2609 -91 1734 -91 
Q 1441 -91 1130 -33 
Q 819 25 488 141 
L 488 750 
Q 750 597 1062 519 
Q 1375 441 1716 441 
Q 2309 441 2620 675 
Q 2931 909 2931 1356 
Q 2931 1769 2642 2001 
Q 2353 2234 1838 2234 
L 1294 2234 
L 1294 2753 
L 1863 2753 
Q 2328 2753 2575 2939 
Q 2822 3125 2822 3475 
Q 2822 3834 2567 4026 
Q 2313 4219 1838 4219 
Q 1578 4219 1281 4162 
Q 984 4106 628 3988 
L 628 4550 
Q 988 4650 1302 4700 
Q 1616 4750 1894 4750 
Q 2613 4750 3031 4423 
Q 3450 4097 3450 3541 
Q 3450 3153 3228 2886 
Q 3006 2619 2597 2516 
z
" transform="scale(0.015625)"/>
       </defs>
       <use xlink:href="#DejaVuSans-33"/>
       <use xlink:href="#DejaVuSans-30" x="63.623047"/>
       <use xlink:href="#DejaVuSans-30" x="127.246094"/>
      </g>
     </g>
    </g>
    <g id="text_17">
     <!-- Latency (ns) -->
     <g transform="translate(25.432812 205.556125) rotate(-90) scale(0.1 -0.1)">
      <defs>
       <path id="DejaVuSans-4c" d="M 628 4666 
L 1259 4666 
L 1259 531 
L 3531 531 
L 3531 0 
L 628 0 
L 628 4666 
z
" transform="scale(0.015625)"/>
       <path id="DejaVuSans-74" d="M 1172 4494 
L 1172 3500 
L 2356 3500 
L 2356 3053 
L 1172 3053 
L 1172 1153 
Q 1172 725 1289 603 
Q 1406 481 1766 481 
L 2356 481 
L 2356 0 
L 1766 0 
Q 1100 0 847 248 
Q 594 497 594 1153 
L 594 3053 
L 172 3053 
L 172 3500 
L 594 3500 
L 594 4494 
L 1172 4494 
z
" transform="scale(0.015625)"/>
       <path id="DejaVuSans-6e" d="M 3513 2113 
L 3513 0 
L 2938 0 
L 2938 2094 
Q 2938 2591 2744 2837 
Q 2550 3084 2163 3084 
Q 1697 3084 1428 2787 
Q 1159 2491 1159 1978 
L 1159 0 
L 581 0 
L 581 3500 
L 1159 3500 
L 1159 2956 
Q 1366 3272 1645 3428 
Q 1925 3584 2291 3584 
Q 2894 3584 3203 3211 
Q 3513 2838 3513 2113 
z
" transform="scale(0.015625)"/>
       <path id="DejaVuSans-63" d="M 3122 3366 
L 3122 2828 
Q 2878 2963 2633 3030 
Q 2388 3097 2138 3097 
Q 1578 3097 1268 2742 
Q 959 2388 959 1747 
Q 959 1106 1268 751 
Q 1578 397 2138 397 
Q 2388 397 2633 464 
Q 2878 531 3122 666 
L 3122 134 
Q 2881 22 2623 -34 
Q 2366 -91 2075 -91 
Q 1284 -91 818 406 
Q 353 903 353 1747 
Q 353 2603 823 3093 
Q 1294 3584 2113 3584 
Q 2378 3584 2631 3529 
Q 2884 3475 3122 3366 
z
" transform="scale(0.015625)"/>
       <path id="DejaVuSans-28" d="M 1984 4856 
Q 1566 4138 1362 3434 
Q 1159 2731 1159 2009 
Q 1159 1288 1364 580 
Q 1569 -128 1984 -844 
L 1484 -844 
Q 1016 -109 783 600 
Q 550 1309 550 2009 
Q 550 2706 781 3412 
Q 1013 4119 1484 4856 
L 1984 4856 
z
" transform="scale(0.015625)"/>
       <path id="DejaVuSans-29" d="M 513 4856 
L 1013 4856 
Q 1481 4119 1714 3412 
Q 1947 2706 1947 2009 
Q 1947 1309 1714 600 
Q 1481 -109 1013 -844 
L 513 -844 
Q 928 -128 1133 580 
Q 1338 1288 1338 2009 
Q 1338 2731 1133 3434 
Q 928 4138 513 4856 
z
" transform="scale(0.015625)"/>
      </defs>
      <use xlink:href="#DejaVuSans-4c"/>
      <use xlink:href="#DejaVuSans-61" x="55.712891"/>
      <use xlink:href="#DejaVuSans-74" x="116.992188"/>
      <use xlink:href="#DejaVuSans-65" x="156.201172"/>
      <use xlink:href="#DejaVuSans-6e" x="217.724609"/>
      <use xlink:href="#DejaVuSans-63" x="281.103516"/>
      <use xlink:href="#DejaVuSans-79" x="336.083984"/>
      <use xlink:href="#DejaVuSans-20" x="395.263672"/>
      <use xlink:href="#DejaVuSans-28" x="427.050781"/>
      <use xlink:href="#DejaVuSans-6e" x="466.064453"/>
      <use xlink:href="#DejaVuSans-73" x="529.443359"/>
      <use xlink:href="#DejaVuSans-29" x="581.542969"/>
     </g>
    </g>
   </g>
   <g id="line2d_16">
    <path d="M 57.6 262.543308 
L 62.219109 271.574435 
L 67.261945 273.495602 
L 71.942128 270.917626 
L 76.902598 267.321595 
L 81.6828 269.275603 
L 86.474973 270.466069 
L 91.367206 266.467743 
L 96.144749 268.052295 
L 101.029151 271.484124 
L 105.824883 265.030973 
L 110.669803 263.922608 
L 115.492139 262.576149 
L 120.350214 264.136071 
L 125.165163 261.894709 
L 129.990867 261.22969 
L 134.818816 261.590935 
L 139.649701 261.303581 
L 144.469829 262.888133 
L 149.30142 258.085216 
L 154.129401 260.392258 
L 158.952852 259.521986 
L 163.775581 258.37257 
L 168.608465 258.840546 
L 173.429695 260.310157 
L 178.258896 259.021169 
L 183.082638 259.571246 
L 187.908582 259.341363 
L 192.737117 255.441559 
L 197.563201 254.0951 
L 202.388132 251.303661 
L 207.213943 253.224827 
L 212.038846 250.277396 
L 216.865406 247.962144 
L 221.691748 249.571326 
L 226.516827 248.208447 
L 231.343037 249.251132 
L 236.168624 247.765101 
L 240.994634 243.134596 
L 245.820004 245.778253 
L 250.645574 245.786463 
L 255.471362 242.354635 
L 260.29729 238.709344 
L 265.122867 239.8916 
L 269.948834 241.098487 
L 274.774373 239.201951 
L 279.600146 236.550084 
L 284.425909 232.773431 
L 289.251561 229.341602 
L 294.077367 230.466388 
L 298.903017 231.952419 
L 303.728762 230.211875 
L 308.554501 230.285766 
L 313.380215 228.750474 
L 318.205893 228.758684 
L 323.031607 225.277595 
L 327.857314 221.459892 
L 332.683017 220.277635 
L 337.508716 215.097053 
L 342.33444 206.583163 
L 347.160143 196.796706 
L 351.985833 177.494725 
L 356.81155 173.841224 
L 361.637255 164.842938 
L 366.462951 163.60321 
L 371.288664 151.008894 
L 376.114365 144.958039 
L 380.940067 140.606678 
L 385.765775 133.431037 
L 390.591481 131.49345 
L 395.417182 122.741467 
L 400.242889 122.330961 
L 405.068593 120.007499 
L 409.894296 113.480457 
L 414.72 115.352363 
" clip-path="url(#p3d41a75ce9)" style="fill: none; stroke: #8b0000; stroke-width: 1.5; stroke-linecap: square"/>
   </g>
   <g id="line2d_17">
    <path d="M 57.6 261.623775 
L 62.219109 262.452997 
L 67.261945 262.444787 
L 71.942128 261.853658 
L 76.902598 257.494087 
L 81.6828 259.735449 
L 86.474973 261.97681 
L 91.367206 255.441559 
L 96.144749 257.806072 
L 101.029151 261.9686 
L 105.824883 253.832376 
L 110.669803 251.812688 
L 115.492139 250.753583 
L 120.350214 253.060625 
L 125.165163 250.843894 
L 129.990867 250.950626 
L 134.818816 250.154244 
L 139.649701 250.293816 
L 144.469829 252.600859 
L 149.30142 246.829148 
L 154.129401 249.678058 
L 158.952852 248.356229 
L 163.775581 247.871832 
L 168.608465 247.477747 
L 173.429695 250.121404 
L 178.258896 246.820938 
L 183.082638 247.609109 
L 187.908582 246.541794 
L 192.737117 243.561522 
L 197.563201 239.957281 
L 202.388132 238.46304 
L 207.213943 239.669927 
L 212.038846 234.013158 
L 216.865406 231.771797 
L 221.691748 234.8588 
L 226.516827 233.397399 
L 231.343037 233.068995 
L 236.168624 232.330084 
L 240.994634 231.402341 
L 245.820004 231.927789 
L 250.645574 228.914676 
L 255.471362 224.982031 
L 260.29729 220.253005 
L 265.122867 222.592888 
L 269.948834 224.431954 
L 274.774373 225.096973 
L 279.600146 220.803083 
L 284.425909 218.684873 
L 289.251561 216.886858 
L 294.077367 215.482928 
L 298.903017 214.817909 
L 303.728762 216.295729 
L 308.554501 214.522345 
L 313.380215 211.689855 
L 318.205893 209.620906 
L 323.031607 196.960908 
L 327.857314 201.895187 
L 332.683017 197.07585 
L 337.508716 192.634177 
L 342.33444 182.207331 
L 347.160143 163.734572 
L 351.985833 155.130371 
L 356.81155 145.811891 
L 361.637255 141.756094 
L 366.462951 137.19127 
L 371.288664 125.935202 
L 376.114365 116.173375 
L 380.940067 109.473921 
L 385.765775 104.038825 
L 390.591481 105.631587 
L 395.417182 95.992912 
L 400.242889 101.345907 
L 405.068593 90.919061 
L 409.894296 87.405131 
L 414.72 91.731862 
" clip-path="url(#p3d41a75ce9)" style="fill: none; stroke: #00008b; stroke-width: 1.5; stroke-linecap: square"/>
   </g>
   <g id="line2d_18">
    <path d="M 57.6 256.311831 
L 62.219109 257.797862 
L 67.261945 259.029379 
L 71.942128 257.124632 
L 76.902598 251.927629 
L 81.6828 254.669808 
L 86.474973 257.543348 
L 91.367206 251.131248 
L 96.144749 253.39724 
L 101.029151 258.561402 
L 105.824883 248.192027 
L 110.669803 247.69942 
L 115.492139 245.893195 
L 120.350214 248.684634 
L 125.165163 244.809459 
L 129.990867 247.059031 
L 134.818816 246.155918 
L 139.649701 246.369381 
L 144.469829 247.321755 
L 149.30142 241.426892 
L 154.129401 244.472845 
L 158.952852 243.684674 
L 163.775581 243.101755 
L 168.608465 242.321795 
L 173.429695 244.14444 
L 178.258896 242.650199 
L 183.082638 242.888292 
L 187.908582 241.689616 
L 192.737117 239.103429 
L 197.563201 234.8588 
L 202.388132 233.397399 
L 207.213943 232.839111 
L 212.038846 229.653587 
L 216.865406 227.543587 
L 221.691748 229.13635 
L 226.516827 227.76526 
L 231.343037 228.914676 
L 236.168624 226.3367 
L 240.994634 225.236545 
L 245.820004 224.90814 
L 250.645574 222.962343 
L 255.471362 222.986973 
L 260.29729 216.517403 
L 265.122867 219.982071 
L 269.948834 221.558413 
L 274.774373 217.806391 
L 279.600146 215.376197 
L 284.425909 214.021528 
L 289.251561 211.189038 
L 294.077367 209.169349 
L 298.903017 209.005147 
L 303.728762 212.371294 
L 308.554501 210.433707 
L 313.380215 208.988727 
L 318.205893 206.591373 
L 323.031607 206.960828 
L 327.857314 201.057756 
L 332.683017 199.522464 
L 337.508716 199.97402 
L 342.33444 189.284451 
L 347.160143 184.391222 
L 351.985833 174.235309 
L 356.81155 163.422588 
L 361.637255 149.916948 
L 366.462951 147.338972 
L 371.288664 137.158429 
L 376.114365 114.268628 
L 380.940067 122.404852 
L 385.765775 112.593765 
L 390.591481 104.580692 
L 395.417182 101.830304 
L 400.242889 98.291744 
L 405.068593 87.052096 
L 409.894296 83.316494 
L 414.72 72.971749 
" clip-path="url(#p3d41a75ce9)" style="fill: none; stroke: #006400; stroke-width: 1.5; stroke-linecap: square"/>
   </g>
   <g id="line2d_19">
    <path d="M 57.6 267.920934 
L 62.219109 303.930499 
L 67.261945 286.795988 
L 71.942128 273.881477 
L 76.902598 262.444787 
L 81.6828 258.791286 
L 86.474973 293.536493 
L 91.367206 273.183617 
L 96.144749 265.154125 
L 101.029151 257.009691 
L 105.824883 299.505247 
L 110.669803 278.421671 
L 115.492139 263.019495 
L 120.350214 253.298718 
L 125.165163 249.070509 
L 129.990867 288.076766 
L 134.818816 263.216538 
L 139.649701 253.659964 
L 144.469829 247.329965 
L 149.30142 296.451084 
L 154.129401 271.91105 
L 158.952852 255.384088 
L 163.775581 245.843934 
L 168.608465 304.349215 
L 173.429695 282.551359 
L 178.258896 256.049107 
L 183.082638 247.190393 
L 187.908582 241.533623 
L 192.737117 289.365754 
L 197.563201 261.525254 
L 202.388132 245.499109 
L 207.213943 232.617438 
L 212.038846 300.45762 
L 216.865406 275.359298 
L 221.691748 247.00977 
L 226.516827 236.426932 
L 231.343037 231.369501 
L 236.168624 283.979919 
L 240.994634 250.835684 
L 245.820004 235.425298 
L 250.645574 226.607634 
L 255.471362 294.907582 
L 260.29729 266.730467 
L 265.122867 236.188838 
L 269.948834 222.945923 
L 274.774373 219.473044 
L 279.600146 274.899532 
L 284.425909 234.037788 
L 289.251561 220.351526 
L 294.077367 207.76542 
L 298.903017 284.973343 
L 303.728762 246.894829 
L 308.554501 215.548609 
L 313.380215 198.611141 
L 318.205893 300.334468 
L 323.031607 260.991596 
L 327.857314 210.532229 
L 332.683017 179.96597 
L 337.508716 164.925039 
L 342.33444 269.08677 
L 347.160143 207.888571 
L 351.985833 172.593286 
L 356.81155 122.708627 
L 361.637255 285.966767 
L 366.462951 222.814561 
L 371.288664 133.940064 
L 376.114365 85.278712 
L 380.940067 57.561363 
L 385.765775 237.453196 
L 390.591481 128.324345 
L 395.417182 87.717116 
L 400.242889 55.787978 
L 405.068593 269.718949 
L 409.894296 180.639199 
L 414.72 89.145676 
" clip-path="url(#p3d41a75ce9)" style="fill: none; stroke: #00ffff; stroke-width: 1.5; stroke-linecap: square"/>
   </g>
   <g id="line2d_20">
    <path d="M 57.6 266.870039 
L 62.219109 303.692405 
L 67.261945 286.492214 
L 71.942128 273.216458 
L 76.902598 263.594203 
L 81.6828 258.159107 
L 86.474973 293.429761 
L 91.367206 273.512022 
L 96.144749 265.342957 
L 101.029151 255.712492 
L 105.824883 299.176842 
L 110.669803 278.626924 
L 115.492139 263.134436 
L 120.350214 252.847162 
L 125.165163 247.362805 
L 129.990867 288.552953 
L 134.818816 262.132802 
L 139.649701 253.093466 
L 144.469829 245.728992 
L 149.30142 296.360773 
L 154.129401 271.779688 
L 158.952852 253.512181 
L 163.775581 243.668253 
L 168.608465 304.308164 
L 173.429695 282.452837 
L 178.258896 255.671442 
L 183.082638 246.131288 
L 187.908582 241.024596 
L 192.737117 290.022564 
L 197.563201 261.27074 
L 202.388132 246.26265 
L 207.213943 235.195415 
L 212.038846 300.654663 
L 216.865406 274.891321 
L 221.691748 248.306968 
L 226.516827 235.146154 
L 231.343037 228.578062 
L 236.168624 283.766456 
L 240.994634 247.880042 
L 245.820004 231.361291 
L 250.645574 218.208686 
L 255.471362 294.792641 
L 260.29729 265.178755 
L 265.122867 230.745532 
L 269.948834 214.785068 
L 274.774373 211.410711 
L 279.600146 273.35603 
L 284.425909 230.203665 
L 289.251561 214.637286 
L 294.077367 198.020013 
L 298.903017 284.365794 
L 303.728762 243.528681 
L 308.554501 209.251451 
L 313.380215 189.95768 
L 318.205893 300.43299 
L 323.031607 255.967006 
L 327.857314 204.489584 
L 332.683017 179.719666 
L 337.508716 157.527725 
L 342.33444 269.686108 
L 347.160143 205.474798 
L 351.985833 165.401225 
L 356.81155 132.298041 
L 361.637255 289.0784 
L 366.462951 231.418762 
L 371.288664 154.489982 
L 376.114365 112.133998 
L 380.940067 83.382175 
L 385.765775 245.080393 
L 390.591481 150.795431 
L 395.417182 91.707232 
L 400.242889 53.989963 
L 405.068593 267.789572 
L 409.894296 181.025075 
L 414.72 79.523421 
" clip-path="url(#p3d41a75ce9)" style="fill: none; stroke: #ffa500; stroke-width: 1.5; stroke-linecap: square"/>
   </g>
   <g id="line2d_21">
    <path d="M 57.6 301.746608 
L 62.219109 301.007698 
L 67.261945 301.524935 
L 71.942128 302.132484 
L 76.902598 301.344312 
L 81.6828 301.15548 
L 86.474973 301.278632 
L 91.367206 301.639877 
L 96.144749 302.296686 
L 101.029151 301.270421 
L 105.824883 301.1719 
L 110.669803 301.524935 
L 115.492139 302.033962 
L 120.350214 301.672717 
L 125.165163 300.933807 
L 129.990867 301.319682 
L 134.818816 301.845129 
L 139.649701 301.86976 
L 144.469829 301.13906 
L 149.30142 301.073379 
L 154.129401 301.492095 
L 158.952852 301.984701 
L 163.775581 301.327892 
L 168.608465 300.900966 
L 173.429695 300.777815 
L 178.258896 301.9026 
L 183.082638 301.680927 
L 187.908582 301.015908 
L 192.737117 300.966647 
L 197.563201 301.508515 
L 202.388132 302.042172 
L 207.213943 300.892756 
L 212.038846 300.835285 
L 216.865406 301.19653 
L 221.691748 301.88618 
L 226.516827 301.516725 
L 231.343037 300.966647 
L 236.168624 300.966647 
L 240.994634 301.582406 
L 245.820004 301.88618 
L 250.645574 300.909176 
L 255.471362 300.712134 
L 260.29729 301.393573 
L 265.122867 302.025752 
L 269.948834 301.024118 
L 274.774373 300.621822 
L 279.600146 301.18832 
L 284.425909 301.492095 
L 289.251561 301.615246 
L 294.077367 301.040538 
L 298.903017 300.843495 
L 303.728762 301.541355 
L 308.554501 301.631667 
L 313.380215 301.089799 
L 318.205893 300.917386 
L 323.031607 300.892756 
L 327.857314 301.820499 
L 332.683017 301.590616 
L 337.508716 300.687503 
L 342.33444 301.13906 
L 347.160143 301.648087 
L 351.985833 302.001122 
L 356.81155 301.18011 
L 361.637255 300.974857 
L 366.462951 301.418204 
L 371.288664 301.992912 
L 376.114365 301.426414 
L 380.940067 300.925597 
L 385.765775 301.16369 
L 390.591481 301.754818 
L 395.417182 301.845129 
L 400.242889 300.983067 
L 405.068593 301.032328 
L 409.894296 301.492095 
L 414.72 302.075013 
" clip-path="url(#p3d41a75ce9)" style="fill: none; stroke: #800080; stroke-width: 1.5; stroke-linecap: square"/>
   </g>
   <g id="line2d_22">
    <path d="M 189.808324 307.584 
L 189.808324 41.472 
" clip-path="url(#p3d41a75ce9)" style="fill: none; stroke-dasharray: 5.55,2.4; stroke-dashoffset: 0; stroke: #000000; stroke-width: 1.5"/>
   </g>
   <g id="line2d_23">
    <path d="M 275.027262 307.584 
L 275.027262 41.472 
" clip-path="url(#p3d41a75ce9)" style="fill: none; stroke-dasharray: 5.55,2.4; stroke-dashoffset: 0; stroke: #000000; stroke-width: 1.5"/>
   </g>
   <g id="line2d_24">
    <path d="M 338.941466 307.584 
L 338.941466 41.472 
" clip-path="url(#p3d41a75ce9)" style="fill: none; stroke-dasharray: 5.55,2.4; stroke-dashoffset: 0; stroke: #000000; stroke-width: 1.5"/>
   </g>
   <g id="patch_3">
    <path d="M 57.6 307.584 
L 57.6 41.472 
" style="fill: none; stroke: #000000; stroke-width: 0.8; stroke-linejoin: miter; stroke-linecap: square"/>
   </g>
   <g id="patch_4">
    <path d="M 414.72 307.584 
L 414.72 41.472 
" style="fill: none; stroke: #000000; stroke-width: 0.8; stroke-linejoin: miter; stroke-linecap: square"/>
   </g>
   <g id="patch_5">
    <path d="M 57.6 307.584 
L 414.72 307.584 
" style="fill: none; stroke: #000000; stroke-width: 0.8; stroke-linejoin: miter; stroke-linecap: square"/>
   </g>
   <g id="patch_6">
    <path d="M 57.6 41.472 
L 414.72 41.472 
" style="fill: none; stroke: #000000; stroke-width: 0.8; stroke-linejoin: miter; stroke-linecap: square"/>
   </g>
   <g id="text_18">
    <!-- Interpolation Search -->
    <g transform="translate(175.242188 29.472) scale(0.12 -0.12)">
     <defs>
      <path id="DejaVuSans-49" d="M 628 4666 
L 1259 4666 
L 1259 0 
L 628 0 
L 628 4666 
z
" transform="scale(0.015625)"/>
      <path id="DejaVuSans-70" d="M 1159 525 
L 1159 -1331 
L 581 -1331 
L 581 3500 
L 1159 3500 
L 1159 2969 
Q 1341 3281 1617 3432 
Q 1894 3584 2278 3584 
Q 2916 3584 3314 3078 
Q 3713 2572 3713 1747 
Q 3713 922 3314 415 
Q 2916 -91 2278 -91 
Q 1894 -91 1617 61 
Q 1341 213 1159 525 
z
M 3116 1747 
Q 3116 2381 2855 2742 
Q 2594 3103 2138 3103 
Q 1681 3103 1420 2742 
Q 1159 2381 1159 1747 
Q 1159 1113 1420 752 
Q 1681 391 2138 391 
Q 2594 391 2855 752 
Q 3116 1113 3116 1747 
z
" transform="scale(0.015625)"/>
      <path id="DejaVuSans-6f" d="M 1959 3097 
Q 1497 3097 1228 2736 
Q 959 2375 959 1747 
Q 959 1119 1226 758 
Q 1494 397 1959 397 
Q 2419 397 2687 759 
Q 2956 1122 2956 1747 
Q 2956 2369 2687 2733 
Q 2419 3097 1959 3097 
z
M 1959 3584 
Q 2709 3584 3137 3096 
Q 3566 2609 3566 1747 
Q 3566 888 3137 398 
Q 2709 -91 1959 -91 
Q 1206 -91 779 398 
Q 353 888 353 1747 
Q 353 2609 779 3096 
Q 1206 3584 1959 3584 
z
" transform="scale(0.015625)"/>
      <path id="DejaVuSans-6c" d="M 603 4863 
L 1178 4863 
L 1178 0 
L 603 0 
L 603 4863 
z
" transform="scale(0.015625)"/>
      <path id="DejaVuSans-53" d="M 3425 4513 
L 3425 3897 
Q 3066 4069 2747 4153 
Q 2428 4238 2131 4238 
Q 1616 4238 1336 4038 
Q 1056 3838 1056 3469 
Q 1056 3159 1242 3001 
Q 1428 2844 1947 2747 
L 2328 2669 
Q 3034 2534 3370 2195 
Q 3706 1856 3706 1288 
Q 3706 609 3251 259 
Q 2797 -91 1919 -91 
Q 1588 -91 1214 -16 
Q 841 59 441 206 
L 441 856 
Q 825 641 1194 531 
Q 1563 422 1919 422 
Q 2459 422 2753 634 
Q 3047 847 3047 1241 
Q 3047 1584 2836 1778 
Q 2625 1972 2144 2069 
L 1759 2144 
Q 1053 2284 737 2584 
Q 422 2884 422 3419 
Q 422 4038 858 4394 
Q 1294 4750 2059 4750 
Q 2388 4750 2728 4690 
Q 3069 4631 3425 4513 
z
" transform="scale(0.015625)"/>
      <path id="DejaVuSans-68" d="M 3513 2113 
L 3513 0 
L 2938 0 
L 2938 2094 
Q 2938 2591 2744 2837 
Q 2550 3084 2163 3084 
Q 1697 3084 1428 2787 
Q 1159 2491 1159 1978 
L 1159 0 
L 581 0 
L 581 4863 
L 1159 4863 
L 1159 2956 
Q 1366 3272 1645 3428 
Q 1925 3584 2291 3584 
Q 2894 3584 3203 3211 
Q 3513 2838 3513 2113 
z
" transform="scale(0.015625)"/>
     </defs>
     <use xlink:href="#DejaVuSans-49"/>
     <use xlink:href="#DejaVuSans-6e" x="29.492188"/>
     <use xlink:href="#DejaVuSans-74" x="92.871094"/>
     <use xlink:href="#DejaVuSans-65" x="132.080078"/>
     <use xlink:href="#DejaVuSans-72" x="193.603516"/>
     <use xlink:href="#DejaVuSans-70" x="234.716797"/>
     <use xlink:href="#DejaVuSans-6f" x="298.193359"/>
     <use xlink:href="#DejaVuSans-6c" x="359.375"/>
     <use xlink:href="#DejaVuSans-61" x="387.158203"/>
     <use xlink:href="#DejaVuSans-74" x="448.4375"/>
     <use xlink:href="#DejaVuSans-69" x="487.646484"/>
     <use xlink:href="#DejaVuSans-6f" x="515.429688"/>
     <use xlink:href="#DejaVuSans-6e" x="576.611328"/>
     <use xlink:href="#DejaVuSans-20" x="639.990234"/>
     <use xlink:href="#DejaVuSans-53" x="671.777344"/>
     <use xlink:href="#DejaVuSans-65" x="735.253906"/>
     <use xlink:href="#DejaVuSans-61" x="796.777344"/>
     <use xlink:href="#DejaVuSans-72" x="858.056641"/>
     <use xlink:href="#DejaVuSans-63" x="896.919922"/>
     <use xlink:href="#DejaVuSans-68" x="951.900391"/>
    </g>
   </g>
   <g id="legend_1">
    <g id="patch_7">
     <path d="M 64.6 137.54075 
L 284.6125 137.54075 
Q 286.6125 137.54075 286.6125 135.54075 
L 286.6125 48.472 
Q 286.6125 46.472 284.6125 46.472 
L 64.6 46.472 
Q 62.6 46.472 62.6 48.472 
L 62.6 135.54075 
Q 62.6 137.54075 64.6 137.54075 
z
" style="fill: #ffffff; opacity: 0.8; stroke: #cccccc; stroke-linejoin: miter"/>
    </g>
    <g id="line2d_25">
     <path d="M 66.6 54.570438 
L 76.6 54.570438 
L 86.6 54.570438 
" style="fill: none; stroke: #8b0000; stroke-width: 1.5; stroke-linecap: square"/>
    </g>
    <g id="text_19">
     <!-- standard -->
     <g transform="translate(94.6 58.070438) scale(0.1 -0.1)">
      <defs>
       <path id="DejaVuSans-64" d="M 2906 2969 
L 2906 4863 
L 3481 4863 
L 3481 0 
L 2906 0 
L 2906 525 
Q 2725 213 2448 61 
Q 2172 -91 1784 -91 
Q 1150 -91 751 415 
Q 353 922 353 1747 
Q 353 2572 751 3078 
Q 1150 3584 1784 3584 
Q 2172 3584 2448 3432 
Q 2725 3281 2906 2969 
z
M 947 1747 
Q 947 1113 1208 752 
Q 1469 391 1925 391 
Q 2381 391 2643 752 
Q 2906 1113 2906 1747 
Q 2906 2381 2643 2742 
Q 2381 3103 1925 3103 
Q 1469 3103 1208 2742 
Q 947 2381 947 1747 
z
" transform="scale(0.015625)"/>
      </defs>
      <use xlink:href="#DejaVuSans-73"/>
      <use xlink:href="#DejaVuSans-74" x="52.099609"/>
      <use xlink:href="#DejaVuSans-61" x="91.308594"/>
      <use xlink:href="#DejaVuSans-6e" x="152.587891"/>
      <use xlink:href="#DejaVuSans-64" x="215.966797"/>
      <use xlink:href="#DejaVuSans-61" x="279.443359"/>
      <use xlink:href="#DejaVuSans-72" x="340.722656"/>
      <use xlink:href="#DejaVuSans-64" x="380.085938"/>
     </g>
    </g>
    <g id="line2d_26">
     <path d="M 66.6 69.248563 
L 76.6 69.248563 
L 86.6 69.248563 
" style="fill: none; stroke: #00008b; stroke-width: 1.5; stroke-linecap: square"/>
    </g>
    <g id="text_20">
     <!-- branchless -->
     <g transform="translate(94.6 72.748563) scale(0.1 -0.1)">
      <defs>
       <path id="DejaVuSans-62" d="M 3116 1747 
Q 3116 2381 2855 2742 
Q 2594 3103 2138 3103 
Q 1681 3103 1420 2742 
Q 1159 2381 1159 1747 
Q 1159 1113 1420 752 
Q 1681 391 2138 391 
Q 2594 391 2855 752 
Q 3116 1113 3116 1747 
z
M 1159 2969 
Q 1341 3281 1617 3432 
Q 1894 3584 2278 3584 
Q 2916 3584 3314 3078 
Q 3713 2572 3713 1747 
Q 3713 922 3314 415 
Q 2916 -91 2278 -91 
Q 1894 -91 1617 61 
Q 1341 213 1159 525 
L 1159 0 
L 581 0 
L 581 4863 
L 1159 4863 
L 1159 2969 
z
" transform="scale(0.015625)"/>
      </defs>
      <use xlink:href="#DejaVuSans-62"/>
      <use xlink:href="#DejaVuSans-72" x="63.476562"/>
      <use xlink:href="#DejaVuSans-61" x="104.589844"/>
      <use xlink:href="#DejaVuSans-6e" x="165.869141"/>
      <use xlink:href="#DejaVuSans-63" x="229.248047"/>
      <use xlink:href="#DejaVuSans-68" x="284.228516"/>
      <use xlink:href="#DejaVuSans-6c" x="347.607422"/>
      <use xlink:href="#DejaVuSans-65" x="375.390625"/>
      <use xlink:href="#DejaVuSans-73" x="436.914062"/>
      <use xlink:href="#DejaVuSans-73" x="489.013672"/>
     </g>
    </g>
    <g id="line2d_27">
     <path d="M 66.6 83.926688 
L 76.6 83.926688 
L 86.6 83.926688 
" style="fill: none; stroke: #006400; stroke-width: 1.5; stroke-linecap: square"/>
    </g>
    <g id="text_21">
     <!-- branchless + prefetching -->
     <g transform="translate(94.6 87.426688) scale(0.1 -0.1)">
      <defs>
       <path id="DejaVuSans-2b" d="M 2944 4013 
L 2944 2272 
L 4684 2272 
L 4684 1741 
L 2944 1741 
L 2944 0 
L 2419 0 
L 2419 1741 
L 678 1741 
L 678 2272 
L 2419 2272 
L 2419 4013 
L 2944 4013 
z
" transform="scale(0.015625)"/>
       <path id="DejaVuSans-66" d="M 2375 4863 
L 2375 4384 
L 1825 4384 
Q 1516 4384 1395 4259 
Q 1275 4134 1275 3809 
L 1275 3500 
L 2222 3500 
L 2222 3053 
L 1275 3053 
L 1275 0 
L 697 0 
L 697 3053 
L 147 3053 
L 147 3500 
L 697 3500 
L 697 3744 
Q 697 4328 969 4595 
Q 1241 4863 1831 4863 
L 2375 4863 
z
" transform="scale(0.015625)"/>
       <path id="DejaVuSans-67" d="M 2906 1791 
Q 2906 2416 2648 2759 
Q 2391 3103 1925 3103 
Q 1463 3103 1205 2759 
Q 947 2416 947 1791 
Q 947 1169 1205 825 
Q 1463 481 1925 481 
Q 2391 481 2648 825 
Q 2906 1169 2906 1791 
z
M 3481 434 
Q 3481 -459 3084 -895 
Q 2688 -1331 1869 -1331 
Q 1566 -1331 1297 -1286 
Q 1028 -1241 775 -1147 
L 775 -588 
Q 1028 -725 1275 -790 
Q 1522 -856 1778 -856 
Q 2344 -856 2625 -561 
Q 2906 -266 2906 331 
L 2906 616 
Q 2728 306 2450 153 
Q 2172 0 1784 0 
Q 1141 0 747 490 
Q 353 981 353 1791 
Q 353 2603 747 3093 
Q 1141 3584 1784 3584 
Q 2172 3584 2450 3431 
Q 2728 3278 2906 2969 
L 2906 3500 
L 3481 3500 
L 3481 434 
z
" transform="scale(0.015625)"/>
      </defs>
      <use xlink:href="#DejaVuSans-62"/>
      <use xlink:href="#DejaVuSans-72" x="63.476562"/>
      <use xlink:href="#DejaVuSans-61" x="104.589844"/>
      <use xlink:href="#DejaVuSans-6e" x="165.869141"/>
      <use xlink:href="#DejaVuSans-63" x="229.248047"/>
      <use xlink:href="#DejaVuSans-68" x="284.228516"/>
      <use xlink:href="#DejaVuSans-6c" x="347.607422"/>
      <use xlink:href="#DejaVuSans-65" x="375.390625"/>
      <use xlink:href="#DejaVuSans-73" x="436.914062"/>
      <use xlink:href="#DejaVuSans-73" x="489.013672"/>
      <use xlink:href="#DejaVuSans-20" x="541.113281"/>
      <use xlink:href="#DejaVuSans-2b" x="572.900391"/>
      <use xlink:href="#DejaVuSans-20" x="656.689453"/>
      <use xlink:href="#DejaVuSans-70" x="688.476562"/>
      <use xlink:href="#DejaVuSans-72" x="751.953125"/>
      <use xlink:href="#DejaVuSans-65" x="790.816406"/>
      <use xlink:href="#DejaVuSans-66" x="852.339844"/>
      <use xlink:href="#DejaVuSans-65" x="887.544922"/>
      <use xlink:href="#DejaVuSans-74" x="949.068359"/>
      <use xlink:href="#DejaVuSans-63" x="988.277344"/>
      <use xlink:href="#DejaVuSans-68" x="1043.257812"/>
      <use xlink:href="#DejaVuSans-69" x="1106.636719"/>
      <use xlink:href="#DejaVuSans-6e" x="1134.419922"/>
      <use xlink:href="#DejaVuSans-67" x="1197.798828"/>
     </g>
    </g>
    <g id="line2d_28">
     <path d="M 66.6 98.604813 
L 76.6 98.604813 
L 86.6 98.604813 
" style="fill: none; stroke: #00ffff; stroke-width: 1.5; stroke-linecap: square"/>
    </g>
    <g id="text_22">
     <!-- eytzinger -->
     <g transform="translate(94.6 102.104813) scale(0.1 -0.1)">
      <use xlink:href="#DejaVuSans-65"/>
      <use xlink:href="#DejaVuSans-79" x="61.523438"/>
      <use xlink:href="#DejaVuSans-74" x="120.703125"/>
      <use xlink:href="#DejaVuSans-7a" x="159.912109"/>
      <use xlink:href="#DejaVuSans-69" x="212.402344"/>
      <use xlink:href="#DejaVuSans-6e" x="240.185547"/>
      <use xlink:href="#DejaVuSans-67" x="303.564453"/>
      <use xlink:href="#DejaVuSans-65" x="367.041016"/>
      <use xlink:href="#DejaVuSans-72" x="428.564453"/>
     </g>
    </g>
    <g id="line2d_29">
     <path d="M 66.6 113.282938 
L 76.6 113.282938 
L 86.6 113.282938 
" style="fill: none; stroke: #ffa500; stroke-width: 1.5; stroke-linecap: square"/>
    </g>
    <g id="text_23">
     <!-- eytzinger (with prefetching) -->
     <g transform="translate(94.6 116.782938) scale(0.1 -0.1)">
      <defs>
       <path id="DejaVuSans-77" d="M 269 3500 
L 844 3500 
L 1563 769 
L 2278 3500 
L 2956 3500 
L 3675 769 
L 4391 3500 
L 4966 3500 
L 4050 0 
L 3372 0 
L 2619 2869 
L 1863 0 
L 1184 0 
L 269 3500 
z
" transform="scale(0.015625)"/>
      </defs>
      <use xlink:href="#DejaVuSans-65"/>
      <use xlink:href="#DejaVuSans-79" x="61.523438"/>
      <use xlink:href="#DejaVuSans-74" x="120.703125"/>
      <use xlink:href="#DejaVuSans-7a" x="159.912109"/>
      <use xlink:href="#DejaVuSans-69" x="212.402344"/>
      <use xlink:href="#DejaVuSans-6e" x="240.185547"/>
      <use xlink:href="#DejaVuSans-67" x="303.564453"/>
      <use xlink:href="#DejaVuSans-65" x="367.041016"/>
      <use xlink:href="#DejaVuSans-72" x="428.564453"/>
      <use xlink:href="#DejaVuSans-20" x="469.677734"/>
      <use xlink:href="#DejaVuSans-28" x="501.464844"/>
      <use xlink:href="#DejaVuSans-77" x="540.478516"/>
      <use xlink:href="#DejaVuSans-69" x="622.265625"/>
      <use xlink:href="#DejaVuSans-74" x="650.048828"/>
      <use xlink:href="#DejaVuSans-68" x="689.257812"/>
      <use xlink:href="#DejaVuSans-20" x="752.636719"/>
      <use xlink:href="#DejaVuSans-70" x="784.423828"/>
      <use xlink:href="#DejaVuSans-72" x="847.900391"/>
      <use xlink:href="#DejaVuSans-65" x="886.763672"/>
      <use xlink:href="#DejaVuSans-66" x="948.287109"/>
      <use xlink:href="#DejaVuSans-65" x="983.492188"/>
      <use xlink:href="#DejaVuSans-74" x="1045.015625"/>
      <use xlink:href="#DejaVuSans-63" x="1084.224609"/>
      <use xlink:href="#DejaVuSans-68" x="1139.205078"/>
      <use xlink:href="#DejaVuSans-69" x="1202.583984"/>
      <use xlink:href="#DejaVuSans-6e" x="1230.367188"/>
      <use xlink:href="#DejaVuSans-67" x="1293.746094"/>
      <use xlink:href="#DejaVuSans-29" x="1357.222656"/>
     </g>
    </g>
    <g id="line2d_30">
     <path d="M 66.6 127.961063 
L 76.6 127.961063 
L 86.6 127.961063 
" style="fill: none; stroke: #800080; stroke-width: 1.5; stroke-linecap: square"/>
    </g>
    <g id="text_24">
     <!-- eytzinger (fixed number of iterations) -->
     <g transform="translate(94.6 131.461063) scale(0.1 -0.1)">
      <defs>
       <path id="DejaVuSans-78" d="M 3513 3500 
L 2247 1797 
L 3578 0 
L 2900 0 
L 1881 1375 
L 863 0 
L 184 0 
L 1544 1831 
L 300 3500 
L 978 3500 
L 1906 2253 
L 2834 3500 
L 3513 3500 
z
" transform="scale(0.015625)"/>
       <path id="DejaVuSans-75" d="M 544 1381 
L 544 3500 
L 1119 3500 
L 1119 1403 
Q 1119 906 1312 657 
Q 1506 409 1894 409 
Q 2359 409 2629 706 
Q 2900 1003 2900 1516 
L 2900 3500 
L 3475 3500 
L 3475 0 
L 2900 0 
L 2900 538 
Q 2691 219 2414 64 
Q 2138 -91 1772 -91 
Q 1169 -91 856 284 
Q 544 659 544 1381 
z
M 1991 3584 
L 1991 3584 
z
" transform="scale(0.015625)"/>
       <path id="DejaVuSans-6d" d="M 3328 2828 
Q 3544 3216 3844 3400 
Q 4144 3584 4550 3584 
Q 5097 3584 5394 3201 
Q 5691 2819 5691 2113 
L 5691 0 
L 5113 0 
L 5113 2094 
Q 5113 2597 4934 2840 
Q 4756 3084 4391 3084 
Q 3944 3084 3684 2787 
Q 3425 2491 3425 1978 
L 3425 0 
L 2847 0 
L 2847 2094 
Q 2847 2600 2669 2842 
Q 2491 3084 2119 3084 
Q 1678 3084 1418 2786 
Q 1159 2488 1159 1978 
L 1159 0 
L 581 0 
L 581 3500 
L 1159 3500 
L 1159 2956 
Q 1356 3278 1631 3431 
Q 1906 3584 2284 3584 
Q 2666 3584 2933 3390 
Q 3200 3197 3328 2828 
z
" transform="scale(0.015625)"/>
      </defs>
      <use xlink:href="#DejaVuSans-65"/>
      <use xlink:href="#DejaVuSans-79" x="61.523438"/>
      <use xlink:href="#DejaVuSans-74" x="120.703125"/>
      <use xlink:href="#DejaVuSans-7a" x="159.912109"/>
      <use xlink:href="#DejaVuSans-69" x="212.402344"/>
      <use xlink:href="#DejaVuSans-6e" x="240.185547"/>
      <use xlink:href="#DejaVuSans-67" x="303.564453"/>
      <use xlink:href="#DejaVuSans-65" x="367.041016"/>
      <use xlink:href="#DejaVuSans-72" x="428.564453"/>
      <use xlink:href="#DejaVuSans-20" x="469.677734"/>
      <use xlink:href="#DejaVuSans-28" x="501.464844"/>
      <use xlink:href="#DejaVuSans-66" x="540.478516"/>
      <use xlink:href="#DejaVuSans-69" x="575.683594"/>
      <use xlink:href="#DejaVuSans-78" x="603.466797"/>
      <use xlink:href="#DejaVuSans-65" x="659.521484"/>
      <use xlink:href="#DejaVuSans-64" x="721.044922"/>
      <use xlink:href="#DejaVuSans-20" x="784.521484"/>
      <use xlink:href="#DejaVuSans-6e" x="816.308594"/>
      <use xlink:href="#DejaVuSans-75" x="879.6875"/>
      <use xlink:href="#DejaVuSans-6d" x="943.066406"/>
      <use xlink:href="#DejaVuSans-62" x="1040.478516"/>
      <use xlink:href="#DejaVuSans-65" x="1103.955078"/>
      <use xlink:href="#DejaVuSans-72" x="1165.478516"/>
      <use xlink:href="#DejaVuSans-20" x="1206.591797"/>
      <use xlink:href="#DejaVuSans-6f" x="1238.378906"/>
      <use xlink:href="#DejaVuSans-66" x="1299.560547"/>
      <use xlink:href="#DejaVuSans-20" x="1334.765625"/>
      <use xlink:href="#DejaVuSans-69" x="1366.552734"/>
      <use xlink:href="#DejaVuSans-74" x="1394.335938"/>
      <use xlink:href="#DejaVuSans-65" x="1433.544922"/>
      <use xlink:href="#DejaVuSans-72" x="1495.068359"/>
      <use xlink:href="#DejaVuSans-61" x="1536.181641"/>
      <use xlink:href="#DejaVuSans-74" x="1597.460938"/>
      <use xlink:href="#DejaVuSans-69" x="1636.669922"/>
      <use xlink:href="#DejaVuSans-6f" x="1664.453125"/>
      <use xlink:href="#DejaVuSans-6e" x="1725.634766"/>
      <use xlink:href="#DejaVuSans-73" x="1789.013672"/>
      <use xlink:href="#DejaVuSans-29" x="1841.113281"/>
     </g>
    </g>
   </g>
  </g>
 </g>
 <defs>
  <clipPath id="p3d41a75ce9">
   <rect x="57.6" y="41.472" width="357.12" height="266.112"/>
  </clipPath>
 </defs>
</svg>
