<?xml version="1.0" encoding="utf-8" standalone="no"?>
<!DOCTYPE svg PUBLIC "-//W3C//DTD SVG 1.1//EN"
  "http://www.w3.org/Graphics/SVG/1.1/DTD/svg11.dtd">
<svg xmlns:xlink="http://www.w3.org/1999/xlink" width="460.8pt" height="345.6pt" viewBox="0 0 460.8 345.6" xmlns="http://www.w3.org/2000/svg" version="1.1">
 <metadata>
  <rdf:RDF xmlns:dc="http://purl.org/dc/elements/1.1/" xmlns:cc="http://creativecommons.org/ns#" xmlns:rdf="http://www.w3.org/1999/02/22-rdf-syntax-ns#">
   <cc:Work>
    <dc:type rdf:resource="http://purl.org/dc/dcmitype/StillImage"/>
    <dc:date>2024-04-16T01:12:25.372051</dc:date>
    <dc:format>image/svg+xml</dc:format>
    <dc:creator>
     <cc:Agent>
      <dc:title>Matplotlib v3.8.2, https://matplotlib.org/</dc:title>
     </cc:Agent>
    </dc:creator>
   </cc:Work>
  </rdf:RDF>
 </metadata>
 <defs>
  <style type="text/css">*{stroke-linejoin: round; stroke-linecap: butt}</style>
 </defs>
 <g id="figure_1">
  <g id="patch_1">
   <path d="M 0 345.6 
L 460.8 345.6 
L 460.8 0 
L 0 0 
z
" style="fill: #ffffff"/>
  </g>
  <g id="axes_1">
   <g id="patch_2">
    <path d="M 57.6 307.584 
L 414.72 307.584 
L 414.72 41.472 
L 57.6 41.472 
z
" style="fill: #ffffff"/>
   </g>
   <g id="matplotlib.axis_1">
    <g id="xtick_1">
     <g id="line2d_1">
      <defs>
       <path id="m1ca4e386e5" d="M 0 0 
L 0 3.5 
" style="stroke: #000000; stroke-width: 0.8"/>
      </defs>
      <g>
       <use xlink:href="#m1ca4e386e5" x="96.388077" y="307.584" style="stroke: #000000; stroke-width: 0.8"/>
      </g>
     </g>
     <g id="text_1">
      <!-- $\mathdefault{2^{8}}$ -->
      <g transform="translate(90.788077 322.182437) scale(0.1 -0.1)">
       <defs>
        <path id="DejaVuSans-32" d="M 1228 531 
L 3431 531 
L 3431 0 
L 469 0 
L 469 531 
Q 828 903 1448 1529 
Q 2069 2156 2228 2338 
Q 2531 2678 2651 2914 
Q 2772 3150 2772 3378 
Q 2772 3750 2511 3984 
Q 2250 4219 1831 4219 
Q 1534 4219 1204 4116 
Q 875 4013 500 3803 
L 500 4441 
Q 881 4594 1212 4672 
Q 1544 4750 1819 4750 
Q 2544 4750 2975 4387 
Q 3406 4025 3406 3419 
Q 3406 3131 3298 2873 
Q 3191 2616 2906 2266 
Q 2828 2175 2409 1742 
Q 1991 1309 1228 531 
z
" transform="scale(0.015625)"/>
        <path id="DejaVuSans-38" d="M 2034 2216 
Q 1584 2216 1326 1975 
Q 1069 1734 1069 1313 
Q 1069 891 1326 650 
Q 1584 409 2034 409 
Q 2484 409 2743 651 
Q 3003 894 3003 1313 
Q 3003 1734 2745 1975 
Q 2488 2216 2034 2216 
z
M 1403 2484 
Q 997 2584 770 2862 
Q 544 3141 544 3541 
Q 544 4100 942 4425 
Q 1341 4750 2034 4750 
Q 2731 4750 3128 4425 
Q 3525 4100 3525 3541 
Q 3525 3141 3298 2862 
Q 3072 2584 2669 2484 
Q 3125 2378 3379 2068 
Q 3634 1759 3634 1313 
Q 3634 634 3220 271 
Q 2806 -91 2034 -91 
Q 1263 -91 848 271 
Q 434 634 434 1313 
Q 434 1759 690 2068 
Q 947 2378 1403 2484 
z
M 1172 3481 
Q 1172 3119 1398 2916 
Q 1625 2713 2034 2713 
Q 2441 2713 2670 2916 
Q 2900 3119 2900 3481 
Q 2900 3844 2670 4047 
Q 2441 4250 2034 4250 
Q 1625 4250 1398 4047 
Q 1172 3844 1172 3481 
z
" transform="scale(0.015625)"/>
       </defs>
       <use xlink:href="#DejaVuSans-32" transform="translate(0 0.765625)"/>
       <use xlink:href="#DejaVuSans-38" transform="translate(64.580078 39.046875) scale(0.7)"/>
      </g>
     </g>
    </g>
    <g id="xtick_2">
     <g id="line2d_2">
      <g>
       <use xlink:href="#m1ca4e386e5" x="160.735434" y="307.584" style="stroke: #000000; stroke-width: 0.8"/>
      </g>
     </g>
     <g id="text_2">
      <!-- $\mathdefault{2^{10}}$ -->
      <g transform="translate(152.885434 322.182437) scale(0.1 -0.1)">
       <defs>
        <path id="DejaVuSans-31" d="M 794 531 
L 1825 531 
L 1825 4091 
L 703 3866 
L 703 4441 
L 1819 4666 
L 2450 4666 
L 2450 531 
L 3481 531 
L 3481 0 
L 794 0 
L 794 531 
z
" transform="scale(0.015625)"/>
        <path id="DejaVuSans-30" d="M 2034 4250 
Q 1547 4250 1301 3770 
Q 1056 3291 1056 2328 
Q 1056 1369 1301 889 
Q 1547 409 2034 409 
Q 2525 409 2770 889 
Q 3016 1369 3016 2328 
Q 3016 3291 2770 3770 
Q 2525 4250 2034 4250 
z
M 2034 4750 
Q 2819 4750 3233 4129 
Q 3647 3509 3647 2328 
Q 3647 1150 3233 529 
Q 2819 -91 2034 -91 
Q 1250 -91 836 529 
Q 422 1150 422 2328 
Q 422 3509 836 4129 
Q 1250 4750 2034 4750 
z
" transform="scale(0.015625)"/>
       </defs>
       <use xlink:href="#DejaVuSans-32" transform="translate(0 0.765625)"/>
       <use xlink:href="#DejaVuSans-31" transform="translate(64.580078 39.046875) scale(0.7)"/>
       <use xlink:href="#DejaVuSans-30" transform="translate(109.116211 39.046875) scale(0.7)"/>
      </g>
     </g>
    </g>
    <g id="xtick_3">
     <g id="line2d_3">
      <g>
       <use xlink:href="#m1ca4e386e5" x="225.082792" y="307.584" style="stroke: #000000; stroke-width: 0.8"/>
      </g>
     </g>
     <g id="text_3">
      <!-- $\mathdefault{2^{12}}$ -->
      <g transform="translate(217.232792 322.182437) scale(0.1 -0.1)">
       <use xlink:href="#DejaVuSans-32" transform="translate(0 0.765625)"/>
       <use xlink:href="#DejaVuSans-31" transform="translate(64.580078 39.046875) scale(0.7)"/>
       <use xlink:href="#DejaVuSans-32" transform="translate(109.116211 39.046875) scale(0.7)"/>
      </g>
     </g>
    </g>
    <g id="xtick_4">
     <g id="line2d_4">
      <g>
       <use xlink:href="#m1ca4e386e5" x="289.430149" y="307.584" style="stroke: #000000; stroke-width: 0.8"/>
      </g>
     </g>
     <g id="text_4">
      <!-- $\mathdefault{2^{14}}$ -->
      <g transform="translate(281.580149 322.182437) scale(0.1 -0.1)">
       <defs>
        <path id="DejaVuSans-34" d="M 2419 4116 
L 825 1625 
L 2419 1625 
L 2419 4116 
z
M 2253 4666 
L 3047 4666 
L 3047 1625 
L 3713 1625 
L 3713 1100 
L 3047 1100 
L 3047 0 
L 2419 0 
L 2419 1100 
L 313 1100 
L 313 1709 
L 2253 4666 
z
" transform="scale(0.015625)"/>
       </defs>
       <use xlink:href="#DejaVuSans-32" transform="translate(0 0.684375)"/>
       <use xlink:href="#DejaVuSans-31" transform="translate(64.580078 38.965625) scale(0.7)"/>
       <use xlink:href="#DejaVuSans-34" transform="translate(109.116211 38.965625) scale(0.7)"/>
      </g>
     </g>
    </g>
    <g id="xtick_5">
     <g id="line2d_5">
      <g>
       <use xlink:href="#m1ca4e386e5" x="353.777507" y="307.584" style="stroke: #000000; stroke-width: 0.8"/>
      </g>
     </g>
     <g id="text_5">
      <!-- $\mathdefault{2^{16}}$ -->
      <g transform="translate(345.927507 322.182437) scale(0.1 -0.1)">
       <defs>
        <path id="DejaVuSans-36" d="M 2113 2584 
Q 1688 2584 1439 2293 
Q 1191 2003 1191 1497 
Q 1191 994 1439 701 
Q 1688 409 2113 409 
Q 2538 409 2786 701 
Q 3034 994 3034 1497 
Q 3034 2003 2786 2293 
Q 2538 2584 2113 2584 
z
M 3366 4563 
L 3366 3988 
Q 3128 4100 2886 4159 
Q 2644 4219 2406 4219 
Q 1781 4219 1451 3797 
Q 1122 3375 1075 2522 
Q 1259 2794 1537 2939 
Q 1816 3084 2150 3084 
Q 2853 3084 3261 2657 
Q 3669 2231 3669 1497 
Q 3669 778 3244 343 
Q 2819 -91 2113 -91 
Q 1303 -91 875 529 
Q 447 1150 447 2328 
Q 447 3434 972 4092 
Q 1497 4750 2381 4750 
Q 2619 4750 2861 4703 
Q 3103 4656 3366 4563 
z
" transform="scale(0.015625)"/>
       </defs>
       <use xlink:href="#DejaVuSans-32" transform="translate(0 0.765625)"/>
       <use xlink:href="#DejaVuSans-31" transform="translate(64.580078 39.046875) scale(0.7)"/>
       <use xlink:href="#DejaVuSans-36" transform="translate(109.116211 39.046875) scale(0.7)"/>
      </g>
     </g>
    </g>
    <g id="text_6">
     <!-- Array size -->
     <g transform="translate(211.409219 335.860562) scale(0.1 -0.1)">
      <defs>
       <path id="DejaVuSans-41" d="M 2188 4044 
L 1331 1722 
L 3047 1722 
L 2188 4044 
z
M 1831 4666 
L 2547 4666 
L 4325 0 
L 3669 0 
L 3244 1197 
L 1141 1197 
L 716 0 
L 50 0 
L 1831 4666 
z
" transform="scale(0.015625)"/>
       <path id="DejaVuSans-72" d="M 2631 2963 
Q 2534 3019 2420 3045 
Q 2306 3072 2169 3072 
Q 1681 3072 1420 2755 
Q 1159 2438 1159 1844 
L 1159 0 
L 581 0 
L 581 3500 
L 1159 3500 
L 1159 2956 
Q 1341 3275 1631 3429 
Q 1922 3584 2338 3584 
Q 2397 3584 2469 3576 
Q 2541 3569 2628 3553 
L 2631 2963 
z
" transform="scale(0.015625)"/>
       <path id="DejaVuSans-61" d="M 2194 1759 
Q 1497 1759 1228 1600 
Q 959 1441 959 1056 
Q 959 750 1161 570 
Q 1363 391 1709 391 
Q 2188 391 2477 730 
Q 2766 1069 2766 1631 
L 2766 1759 
L 2194 1759 
z
M 3341 1997 
L 3341 0 
L 2766 0 
L 2766 531 
Q 2569 213 2275 61 
Q 1981 -91 1556 -91 
Q 1019 -91 701 211 
Q 384 513 384 1019 
Q 384 1609 779 1909 
Q 1175 2209 1959 2209 
L 2766 2209 
L 2766 2266 
Q 2766 2663 2505 2880 
Q 2244 3097 1772 3097 
Q 1472 3097 1187 3025 
Q 903 2953 641 2809 
L 641 3341 
Q 956 3463 1253 3523 
Q 1550 3584 1831 3584 
Q 2591 3584 2966 3190 
Q 3341 2797 3341 1997 
z
" transform="scale(0.015625)"/>
       <path id="DejaVuSans-79" d="M 2059 -325 
Q 1816 -950 1584 -1140 
Q 1353 -1331 966 -1331 
L 506 -1331 
L 506 -850 
L 844 -850 
Q 1081 -850 1212 -737 
Q 1344 -625 1503 -206 
L 1606 56 
L 191 3500 
L 800 3500 
L 1894 763 
L 2988 3500 
L 3597 3500 
L 2059 -325 
z
" transform="scale(0.015625)"/>
       <path id="DejaVuSans-20" transform="scale(0.015625)"/>
       <path id="DejaVuSans-73" d="M 2834 3397 
L 2834 2853 
Q 2591 2978 2328 3040 
Q 2066 3103 1784 3103 
Q 1356 3103 1142 2972 
Q 928 2841 928 2578 
Q 928 2378 1081 2264 
Q 1234 2150 1697 2047 
L 1894 2003 
Q 2506 1872 2764 1633 
Q 3022 1394 3022 966 
Q 3022 478 2636 193 
Q 2250 -91 1575 -91 
Q 1294 -91 989 -36 
Q 684 19 347 128 
L 347 722 
Q 666 556 975 473 
Q 1284 391 1588 391 
Q 1994 391 2212 530 
Q 2431 669 2431 922 
Q 2431 1156 2273 1281 
Q 2116 1406 1581 1522 
L 1381 1569 
Q 847 1681 609 1914 
Q 372 2147 372 2553 
Q 372 3047 722 3315 
Q 1072 3584 1716 3584 
Q 2034 3584 2315 3537 
Q 2597 3491 2834 3397 
z
" transform="scale(0.015625)"/>
       <path id="DejaVuSans-69" d="M 603 3500 
L 1178 3500 
L 1178 0 
L 603 0 
L 603 3500 
z
M 603 4863 
L 1178 4863 
L 1178 4134 
L 603 4134 
L 603 4863 
z
" transform="scale(0.015625)"/>
       <path id="DejaVuSans-7a" d="M 353 3500 
L 3084 3500 
L 3084 2975 
L 922 459 
L 3084 459 
L 3084 0 
L 275 0 
L 275 525 
L 2438 3041 
L 353 3041 
L 353 3500 
z
" transform="scale(0.015625)"/>
       <path id="DejaVuSans-65" d="M 3597 1894 
L 3597 1613 
L 953 1613 
Q 991 1019 1311 708 
Q 1631 397 2203 397 
Q 2534 397 2845 478 
Q 3156 559 3463 722 
L 3463 178 
Q 3153 47 2828 -22 
Q 2503 -91 2169 -91 
Q 1331 -91 842 396 
Q 353 884 353 1716 
Q 353 2575 817 3079 
Q 1281 3584 2069 3584 
Q 2775 3584 3186 3129 
Q 3597 2675 3597 1894 
z
M 3022 2063 
Q 3016 2534 2758 2815 
Q 2500 3097 2075 3097 
Q 1594 3097 1305 2825 
Q 1016 2553 972 2059 
L 3022 2063 
z
" transform="scale(0.015625)"/>
      </defs>
      <use xlink:href="#DejaVuSans-41"/>
      <use xlink:href="#DejaVuSans-72" x="68.408203"/>
      <use xlink:href="#DejaVuSans-72" x="107.771484"/>
      <use xlink:href="#DejaVuSans-61" x="148.884766"/>
      <use xlink:href="#DejaVuSans-79" x="210.164062"/>
      <use xlink:href="#DejaVuSans-20" x="269.34375"/>
      <use xlink:href="#DejaVuSans-73" x="301.130859"/>
      <use xlink:href="#DejaVuSans-69" x="353.230469"/>
      <use xlink:href="#DejaVuSans-7a" x="381.013672"/>
      <use xlink:href="#DejaVuSans-65" x="433.503906"/>
     </g>
    </g>
   </g>
   <g id="matplotlib.axis_2">
    <g id="ytick_1">
     <g id="line2d_6">
      <defs>
       <path id="ma776434c4e" d="M 0 0 
L -3.5 0 
" style="stroke: #000000; stroke-width: 0.8"/>
      </defs>
      <g>
       <use xlink:href="#ma776434c4e" x="57.6" y="307.584" style="stroke: #000000; stroke-width: 0.8"/>
      </g>
     </g>
     <g id="text_7">
      <!-- 0 -->
      <g transform="translate(44.2375 311.383219) scale(0.1 -0.1)">
       <use xlink:href="#DejaVuSans-30"/>
      </g>
     </g>
    </g>
    <g id="ytick_2">
     <g id="line2d_7">
      <g>
       <use xlink:href="#ma776434c4e" x="57.6" y="267.431606" style="stroke: #000000; stroke-width: 0.8"/>
      </g>
     </g>
     <g id="text_8">
      <!-- 20 -->
      <g transform="translate(37.875 271.230825) scale(0.1 -0.1)">
       <use xlink:href="#DejaVuSans-32"/>
       <use xlink:href="#DejaVuSans-30" x="63.623047"/>
      </g>
     </g>
    </g>
    <g id="ytick_3">
     <g id="line2d_8">
      <g>
       <use xlink:href="#ma776434c4e" x="57.6" y="227.279212" style="stroke: #000000; stroke-width: 0.8"/>
      </g>
     </g>
     <g id="text_9">
      <!-- 40 -->
      <g transform="translate(37.875 231.07843) scale(0.1 -0.1)">
       <use xlink:href="#DejaVuSans-34"/>
       <use xlink:href="#DejaVuSans-30" x="63.623047"/>
      </g>
     </g>
    </g>
    <g id="ytick_4">
     <g id="line2d_9">
      <g>
       <use xlink:href="#ma776434c4e" x="57.6" y="187.126817" style="stroke: #000000; stroke-width: 0.8"/>
      </g>
     </g>
     <g id="text_10">
      <!-- 60 -->
      <g transform="translate(37.875 190.926036) scale(0.1 -0.1)">
       <use xlink:href="#DejaVuSans-36"/>
       <use xlink:href="#DejaVuSans-30" x="63.623047"/>
      </g>
     </g>
    </g>
    <g id="ytick_5">
     <g id="line2d_10">
      <g>
       <use xlink:href="#ma776434c4e" x="57.6" y="146.974423" style="stroke: #000000; stroke-width: 0.8"/>
      </g>
     </g>
     <g id="text_11">
      <!-- 80 -->
      <g transform="translate(37.875 150.773642) scale(0.1 -0.1)">
       <use xlink:href="#DejaVuSans-38"/>
       <use xlink:href="#DejaVuSans-30" x="63.623047"/>
      </g>
     </g>
    </g>
    <g id="ytick_6">
     <g id="line2d_11">
      <g>
       <use xlink:href="#ma776434c4e" x="57.6" y="106.822029" style="stroke: #000000; stroke-width: 0.8"/>
      </g>
     </g>
     <g id="text_12">
      <!-- 100 -->
      <g transform="translate(31.5125 110.621248) scale(0.1 -0.1)">
       <use xlink:href="#DejaVuSans-31"/>
       <use xlink:href="#DejaVuSans-30" x="63.623047"/>
       <use xlink:href="#DejaVuSans-30" x="127.246094"/>
      </g>
     </g>
    </g>
    <g id="ytick_7">
     <g id="line2d_12">
      <g>
       <use xlink:href="#ma776434c4e" x="57.6" y="66.669635" style="stroke: #000000; stroke-width: 0.8"/>
      </g>
     </g>
     <g id="text_13">
      <!-- 120 -->
      <g transform="translate(31.5125 70.468854) scale(0.1 -0.1)">
       <use xlink:href="#DejaVuSans-31"/>
       <use xlink:href="#DejaVuSans-32" x="63.623047"/>
       <use xlink:href="#DejaVuSans-30" x="127.246094"/>
      </g>
     </g>
    </g>
    <g id="text_14">
     <!-- Latency (ns) -->
     <g transform="translate(25.432812 205.556125) rotate(-90) scale(0.1 -0.1)">
      <defs>
       <path id="DejaVuSans-4c" d="M 628 4666 
L 1259 4666 
L 1259 531 
L 3531 531 
L 3531 0 
L 628 0 
L 628 4666 
z
" transform="scale(0.015625)"/>
       <path id="DejaVuSans-74" d="M 1172 4494 
L 1172 3500 
L 2356 3500 
L 2356 3053 
L 1172 3053 
L 1172 1153 
Q 1172 725 1289 603 
Q 1406 481 1766 481 
L 2356 481 
L 2356 0 
L 1766 0 
Q 1100 0 847 248 
Q 594 497 594 1153 
L 594 3053 
L 172 3053 
L 172 3500 
L 594 3500 
L 594 4494 
L 1172 4494 
z
" transform="scale(0.015625)"/>
       <path id="DejaVuSans-6e" d="M 3513 2113 
L 3513 0 
L 2938 0 
L 2938 2094 
Q 2938 2591 2744 2837 
Q 2550 3084 2163 3084 
Q 1697 3084 1428 2787 
Q 1159 2491 1159 1978 
L 1159 0 
L 581 0 
L 581 3500 
L 1159 3500 
L 1159 2956 
Q 1366 3272 1645 3428 
Q 1925 3584 2291 3584 
Q 2894 3584 3203 3211 
Q 3513 2838 3513 2113 
z
" transform="scale(0.015625)"/>
       <path id="DejaVuSans-63" d="M 3122 3366 
L 3122 2828 
Q 2878 2963 2633 3030 
Q 2388 3097 2138 3097 
Q 1578 3097 1268 2742 
Q 959 2388 959 1747 
Q 959 1106 1268 751 
Q 1578 397 2138 397 
Q 2388 397 2633 464 
Q 2878 531 3122 666 
L 3122 134 
Q 2881 22 2623 -34 
Q 2366 -91 2075 -91 
Q 1284 -91 818 406 
Q 353 903 353 1747 
Q 353 2603 823 3093 
Q 1294 3584 2113 3584 
Q 2378 3584 2631 3529 
Q 2884 3475 3122 3366 
z
" transform="scale(0.015625)"/>
       <path id="DejaVuSans-28" d="M 1984 4856 
Q 1566 4138 1362 3434 
Q 1159 2731 1159 2009 
Q 1159 1288 1364 580 
Q 1569 -128 1984 -844 
L 1484 -844 
Q 1016 -109 783 600 
Q 550 1309 550 2009 
Q 550 2706 781 3412 
Q 1013 4119 1484 4856 
L 1984 4856 
z
" transform="scale(0.015625)"/>
       <path id="DejaVuSans-29" d="M 513 4856 
L 1013 4856 
Q 1481 4119 1714 3412 
Q 1947 2706 1947 2009 
Q 1947 1309 1714 600 
Q 1481 -109 1013 -844 
L 513 -844 
Q 928 -128 1133 580 
Q 1338 1288 1338 2009 
Q 1338 2731 1133 3434 
Q 928 4138 513 4856 
z
" transform="scale(0.015625)"/>
      </defs>
      <use xlink:href="#DejaVuSans-4c"/>
      <use xlink:href="#DejaVuSans-61" x="55.712891"/>
      <use xlink:href="#DejaVuSans-74" x="116.992188"/>
      <use xlink:href="#DejaVuSans-65" x="156.201172"/>
      <use xlink:href="#DejaVuSans-6e" x="217.724609"/>
      <use xlink:href="#DejaVuSans-63" x="281.103516"/>
      <use xlink:href="#DejaVuSans-79" x="336.083984"/>
      <use xlink:href="#DejaVuSans-20" x="395.263672"/>
      <use xlink:href="#DejaVuSans-28" x="427.050781"/>
      <use xlink:href="#DejaVuSans-6e" x="466.064453"/>
      <use xlink:href="#DejaVuSans-73" x="529.443359"/>
      <use xlink:href="#DejaVuSans-29" x="581.542969"/>
     </g>
    </g>
   </g>
   <g id="line2d_13">
    <path d="M 57.6 218.224847 
L 64.57562 218.967666 
L 72.191138 220.011628 
L 79.258989 213.005036 
L 86.75012 210.736425 
L 93.969018 211.318635 
L 101.205992 215.374027 
L 108.594074 207.263243 
L 115.808957 211.760311 
L 123.185212 219.047971 
L 130.427562 203.328309 
L 137.744195 199.774822 
L 145.026721 198.088421 
L 152.363219 199.794898 
L 159.634589 192.507238 
L 166.922201 197.345602 
L 174.213205 189.535961 
L 181.508641 193.049296 
L 188.787833 197.807354 
L 196.084336 185.018817 
L 203.375386 192.145867 
L 210.659597 189.335199 
L 217.942716 186.665065 
L 225.241172 187.970018 
L 232.522028 191.423124 
L 239.814921 182.950968 
L 247.099572 188.291237 
L 254.387546 188.311313 
L 261.679434 180.401291 
L 268.967619 174.739804 
L 276.254065 172.993175 
L 283.541839 173.254165 
L 290.828242 166.107039 
L 298.117147 162.674009 
L 305.405724 161.188371 
L 312.692392 152.615835 
L 319.980768 160.947456 
L 327.268205 160.766771 
L 334.556278 157.132979 
L 341.843387 158.217094 
L 349.130796 147.877852 
L 356.418536 143.56147 
L 363.706486 135.350305 
L 370.993908 140.369354 
L 378.281918 133.182076 
L 385.569281 138.181049 
L 392.856997 126.938379 
L 400.144698 124.709921 
L 407.432233 99.935894 
L 414.72 116.016927 
" clip-path="url(#p77a7fc341d)" style="fill: none; stroke: #8b0000; stroke-width: 1.5; stroke-linecap: square"/>
   </g>
   <g id="line2d_14">
    <path d="M 57.6 193.330362 
L 64.57562 197.72705 
L 72.191138 197.265297 
L 79.258989 195.217525 
L 86.75012 185.902169 
L 93.969018 190.359085 
L 101.205992 195.859963 
L 108.594074 181.485406 
L 115.808957 185.841941 
L 123.185212 197.385754 
L 130.427562 175.944376 
L 137.744195 172.290508 
L 145.026721 166.849858 
L 152.363219 172.49127 
L 159.634589 168.616564 
L 166.922201 171.407155 
L 174.213205 169.198773 
L 181.508641 168.596488 
L 188.787833 173.07348 
L 196.084336 158.698922 
L 203.375386 164.480867 
L 210.659597 162.955076 
L 217.942716 159.261056 
L 225.241172 159.461818 
L 232.522028 164.862315 
L 239.814921 161.911114 
L 247.099572 162.111876 
L 254.387546 157.39397 
L 261.679434 149.905548 
L 268.967619 141.112174 
L 276.254065 138.763259 
L 283.541839 140.71065 
L 290.828242 129.688818 
L 298.117147 125.512969 
L 305.405724 129.809275 
L 312.692392 126.396321 
L 319.980768 129.106608 
L 327.268205 122.742453 
L 334.556278 122.862911 
L 341.843387 117.783633 
L 349.130796 117.522642 
L 356.418536 112.302831 
L 363.706486 101.521913 
L 370.993908 103.48938 
L 378.281918 109.170944 
L 385.569281 103.629914 
L 392.856997 97.727512 
L 400.144698 90.640614 
L 407.432233 87.749642 
L 414.72 80.903659 
" clip-path="url(#p77a7fc341d)" style="fill: none; stroke: #00008b; stroke-width: 1.5; stroke-linecap: square"/>
   </g>
   <g id="line2d_15">
    <path d="M 57.6 173.133708 
L 64.57562 185.31996 
L 72.191138 190.218552 
L 79.258989 185.079045 
L 86.75012 174.398509 
L 93.969018 175.904223 
L 101.205992 184.597217 
L 108.594074 169.138545 
L 115.808957 174.619347 
L 123.185212 188.030246 
L 130.427562 160.586085 
L 137.744195 159.963723 
L 145.026721 154.683683 
L 152.363219 162.754314 
L 159.634589 155.526883 
L 166.922201 159.220904 
L 174.213205 157.313665 
L 181.508641 158.217094 
L 188.787833 161.730428 
L 196.084336 144.645584 
L 203.375386 152.394997 
L 210.659597 152.254463 
L 217.942716 148.058538 
L 225.241172 147.636938 
L 232.522028 155.185588 
L 239.814921 147.978233 
L 247.099572 150.829053 
L 254.387546 148.439986 
L 261.679434 138.943944 
L 268.967619 129.227065 
L 276.254065 126.496702 
L 283.541839 128.444093 
L 290.828242 114.21007 
L 298.117147 112.242602 
L 305.405724 116.558985 
L 312.692392 113.166107 
L 319.980768 115.274108 
L 327.268205 110.917573 
L 334.556278 108.126982 
L 341.843387 106.540962 
L 349.130796 104.774257 
L 356.418536 97.10515 
L 363.706486 90.740995 
L 370.993908 95.418749 
L 378.281918 98.771474 
L 385.569281 92.347091 
L 392.856997 80.180916 
L 400.144698 78.293753 
L 407.432233 74.338742 
L 414.72 66.288187 
" clip-path="url(#p77a7fc341d)" style="fill: none; stroke: #006400; stroke-width: 1.5; stroke-linecap: square"/>
   </g>
   <g id="line2d_16">
    <path d="M 57.6 210.114063 
L 64.57562 298.690245 
L 72.191138 254.823754 
L 79.258989 224.127249 
L 86.75012 198.811164 
L 93.969018 188.030246 
L 101.205992 273.695379 
L 108.594074 224.930297 
L 115.808957 203.508994 
L 123.185212 185.038893 
L 130.427562 287.748717 
L 137.744195 234.566871 
L 145.026721 199.393374 
L 152.363219 174.639423 
L 159.634589 154.54315 
L 166.922201 260.645851 
L 174.213205 197.486135 
L 181.508641 173.555308 
L 188.787833 160.003875 
L 196.084336 280.360677 
L 203.375386 219.389266 
L 210.659597 177.088719 
L 217.942716 150.246843 
L 225.241172 297.726587 
L 232.522028 245.86977 
L 239.814921 183.493026 
L 247.099572 156.329931 
L 254.387546 124.007254 
L 261.679434 264.761472 
L 268.967619 192.848534 
L 276.254065 158.257246 
L 283.541839 132.459333 
L 290.828242 290.459004 
L 298.117147 228.684545 
L 305.405724 160.626237 
L 312.692392 131.053999 
L 319.980768 117.382109 
L 327.268205 250.427067 
L 334.556278 167.933973 
L 341.843387 129.287294 
L 349.130796 108.167134 
L 356.418536 276.80719 
L 363.706486 209.009872 
L 370.993908 132.981314 
L 378.281918 94.334635 
L 385.569281 84.135926 
L 392.856997 223.464734 
L 400.144698 113.447174 
L 407.432233 87.167432 
L 414.72 53.720488 
" clip-path="url(#p77a7fc341d)" style="fill: none; stroke: #00ffff; stroke-width: 1.5; stroke-linecap: square"/>
   </g>
   <g id="line2d_17">
    <path d="M 57.6 266.026272 
L 64.57562 291.543119 
L 72.191138 293.631043 
L 79.258989 294.393939 
L 86.75012 274.257513 
L 93.969018 244.364055 
L 101.205992 292.567005 
L 108.594074 293.610967 
L 115.808957 290.519232 
L 123.185212 256.369621 
L 130.427562 291.74388 
L 137.744195 293.209443 
L 145.026721 294.092796 
L 152.363219 263.797814 
L 159.634589 230.230413 
L 166.922201 292.446547 
L 174.213205 293.671195 
L 181.508641 279.979229 
L 188.787833 239.887063 
L 196.084336 291.382509 
L 203.375386 292.968529 
L 210.659597 294.153024 
L 217.942716 249.844857 
L 225.241172 291.422661 
L 232.522028 292.165481 
L 239.814921 293.691272 
L 247.099572 268.736559 
L 254.387546 229.808812 
L 261.679434 291.6435 
L 268.967619 292.888224 
L 276.254065 292.426471 
L 283.541839 236.554415 
L 290.828242 291.302204 
L 298.117147 292.004871 
L 305.405724 293.7515 
L 312.692392 255.707107 
L 319.980768 212.563359 
L 327.268205 291.262052 
L 334.556278 292.968529 
L 341.843387 277.449628 
L 349.130796 216.35776 
L 356.418536 291.462814 
L 363.706486 292.406395 
L 370.993908 293.831805 
L 378.281918 234.265728 
L 385.569281 181.063806 
L 392.856997 291.864338 
L 400.144698 292.848071 
L 407.432233 261.629585 
L 414.72 176.968262 
" clip-path="url(#p77a7fc341d)" style="fill: none; stroke: #ffa500; stroke-width: 1.5; stroke-linecap: square"/>
   </g>
   <g id="line2d_18">
    <path d="M 57.6 290.47908 
L 64.57562 291.241976 
L 72.191138 291.201823 
L 79.258989 293.289748 
L 86.75012 292.988605 
L 93.969018 289.394965 
L 101.205992 291.844261 
L 108.594074 294.052643 
L 115.808957 294.614777 
L 123.185212 291.563195 
L 130.427562 291.362433 
L 137.744195 293.189367 
L 145.026721 294.072719 
L 152.363219 293.149214 
L 159.634589 291.48289 
L 166.922201 292.245785 
L 174.213205 293.49051 
L 181.508641 293.550738 
L 188.787833 291.784033 
L 196.084336 291.583271 
L 203.375386 292.727614 
L 210.659597 293.972338 
L 217.942716 292.346166 
L 225.241172 291.282128 
L 232.522028 291.583271 
L 239.814921 293.731424 
L 247.099572 293.189367 
L 254.387546 291.262052 
L 261.679434 291.6435 
L 268.967619 292.727614 
L 276.254065 293.972338 
L 283.541839 291.944642 
L 290.828242 291.342357 
L 298.117147 292.004871 
L 305.405724 293.49051 
L 312.692392 292.707538 
L 319.980768 291.282128 
L 327.268205 291.362433 
L 334.556278 293.008681 
L 341.843387 293.711348 
L 349.130796 291.784033 
L 356.418536 291.48289 
L 363.706486 292.145404 
L 370.993908 293.610967 
L 378.281918 289.254432 
L 385.569281 291.001061 
L 392.856997 290.017328 
L 400.144698 289.394965 
L 407.432233 293.349976 
L 414.72 291.583271 
" clip-path="url(#p77a7fc341d)" style="fill: none; stroke: #800080; stroke-width: 1.5; stroke-linecap: square"/>
   </g>
   <g id="patch_3">
    <path d="M 57.6 307.584 
L 57.6 41.472 
" style="fill: none; stroke: #000000; stroke-width: 0.8; stroke-linejoin: miter; stroke-linecap: square"/>
   </g>
   <g id="patch_4">
    <path d="M 414.72 307.584 
L 414.72 41.472 
" style="fill: none; stroke: #000000; stroke-width: 0.8; stroke-linejoin: miter; stroke-linecap: square"/>
   </g>
   <g id="patch_5">
    <path d="M 57.6 307.584 
L 414.72 307.584 
" style="fill: none; stroke: #000000; stroke-width: 0.8; stroke-linejoin: miter; stroke-linecap: square"/>
   </g>
   <g id="patch_6">
    <path d="M 57.6 41.472 
L 414.72 41.472 
" style="fill: none; stroke: #000000; stroke-width: 0.8; stroke-linejoin: miter; stroke-linecap: square"/>
   </g>
   <g id="text_15">
    <!-- Interpolation search -->
    <g transform="translate(175.925625 29.472) scale(0.12 -0.12)">
     <defs>
      <path id="DejaVuSans-49" d="M 628 4666 
L 1259 4666 
L 1259 0 
L 628 0 
L 628 4666 
z
" transform="scale(0.015625)"/>
      <path id="DejaVuSans-70" d="M 1159 525 
L 1159 -1331 
L 581 -1331 
L 581 3500 
L 1159 3500 
L 1159 2969 
Q 1341 3281 1617 3432 
Q 1894 3584 2278 3584 
Q 2916 3584 3314 3078 
Q 3713 2572 3713 1747 
Q 3713 922 3314 415 
Q 2916 -91 2278 -91 
Q 1894 -91 1617 61 
Q 1341 213 1159 525 
z
M 3116 1747 
Q 3116 2381 2855 2742 
Q 2594 3103 2138 3103 
Q 1681 3103 1420 2742 
Q 1159 2381 1159 1747 
Q 1159 1113 1420 752 
Q 1681 391 2138 391 
Q 2594 391 2855 752 
Q 3116 1113 3116 1747 
z
" transform="scale(0.015625)"/>
      <path id="DejaVuSans-6f" d="M 1959 3097 
Q 1497 3097 1228 2736 
Q 959 2375 959 1747 
Q 959 1119 1226 758 
Q 1494 397 1959 397 
Q 2419 397 2687 759 
Q 2956 1122 2956 1747 
Q 2956 2369 2687 2733 
Q 2419 3097 1959 3097 
z
M 1959 3584 
Q 2709 3584 3137 3096 
Q 3566 2609 3566 1747 
Q 3566 888 3137 398 
Q 2709 -91 1959 -91 
Q 1206 -91 779 398 
Q 353 888 353 1747 
Q 353 2609 779 3096 
Q 1206 3584 1959 3584 
z
" transform="scale(0.015625)"/>
      <path id="DejaVuSans-6c" d="M 603 4863 
L 1178 4863 
L 1178 0 
L 603 0 
L 603 4863 
z
" transform="scale(0.015625)"/>
      <path id="DejaVuSans-68" d="M 3513 2113 
L 3513 0 
L 2938 0 
L 2938 2094 
Q 2938 2591 2744 2837 
Q 2550 3084 2163 3084 
Q 1697 3084 1428 2787 
Q 1159 2491 1159 1978 
L 1159 0 
L 581 0 
L 581 4863 
L 1159 4863 
L 1159 2956 
Q 1366 3272 1645 3428 
Q 1925 3584 2291 3584 
Q 2894 3584 3203 3211 
Q 3513 2838 3513 2113 
z
" transform="scale(0.015625)"/>
     </defs>
     <use xlink:href="#DejaVuSans-49"/>
     <use xlink:href="#DejaVuSans-6e" x="29.492188"/>
     <use xlink:href="#DejaVuSans-74" x="92.871094"/>
     <use xlink:href="#DejaVuSans-65" x="132.080078"/>
     <use xlink:href="#DejaVuSans-72" x="193.603516"/>
     <use xlink:href="#DejaVuSans-70" x="234.716797"/>
     <use xlink:href="#DejaVuSans-6f" x="298.193359"/>
     <use xlink:href="#DejaVuSans-6c" x="359.375"/>
     <use xlink:href="#DejaVuSans-61" x="387.158203"/>
     <use xlink:href="#DejaVuSans-74" x="448.4375"/>
     <use xlink:href="#DejaVuSans-69" x="487.646484"/>
     <use xlink:href="#DejaVuSans-6f" x="515.429688"/>
     <use xlink:href="#DejaVuSans-6e" x="576.611328"/>
     <use xlink:href="#DejaVuSans-20" x="639.990234"/>
     <use xlink:href="#DejaVuSans-73" x="671.777344"/>
     <use xlink:href="#DejaVuSans-65" x="723.876953"/>
     <use xlink:href="#DejaVuSans-61" x="785.400391"/>
     <use xlink:href="#DejaVuSans-72" x="846.679688"/>
     <use xlink:href="#DejaVuSans-63" x="885.542969"/>
     <use xlink:href="#DejaVuSans-68" x="940.523438"/>
    </g>
   </g>
   <g id="legend_1">
    <g id="patch_7">
     <path d="M 64.6 137.54075 
L 284.6125 137.54075 
Q 286.6125 137.54075 286.6125 135.54075 
L 286.6125 48.472 
Q 286.6125 46.472 284.6125 46.472 
L 64.6 46.472 
Q 62.6 46.472 62.6 48.472 
L 62.6 135.54075 
Q 62.6 137.54075 64.6 137.54075 
z
" style="fill: #ffffff; opacity: 0.8; stroke: #cccccc; stroke-linejoin: miter"/>
    </g>
    <g id="line2d_19">
     <path d="M 66.6 54.570438 
L 76.6 54.570438 
L 86.6 54.570438 
" style="fill: none; stroke: #8b0000; stroke-width: 1.5; stroke-linecap: square"/>
    </g>
    <g id="text_16">
     <!-- standard -->
     <g transform="translate(94.6 58.070438) scale(0.1 -0.1)">
      <defs>
       <path id="DejaVuSans-64" d="M 2906 2969 
L 2906 4863 
L 3481 4863 
L 3481 0 
L 2906 0 
L 2906 525 
Q 2725 213 2448 61 
Q 2172 -91 1784 -91 
Q 1150 -91 751 415 
Q 353 922 353 1747 
Q 353 2572 751 3078 
Q 1150 3584 1784 3584 
Q 2172 3584 2448 3432 
Q 2725 3281 2906 2969 
z
M 947 1747 
Q 947 1113 1208 752 
Q 1469 391 1925 391 
Q 2381 391 2643 752 
Q 2906 1113 2906 1747 
Q 2906 2381 2643 2742 
Q 2381 3103 1925 3103 
Q 1469 3103 1208 2742 
Q 947 2381 947 1747 
z
" transform="scale(0.015625)"/>
      </defs>
      <use xlink:href="#DejaVuSans-73"/>
      <use xlink:href="#DejaVuSans-74" x="52.099609"/>
      <use xlink:href="#DejaVuSans-61" x="91.308594"/>
      <use xlink:href="#DejaVuSans-6e" x="152.587891"/>
      <use xlink:href="#DejaVuSans-64" x="215.966797"/>
      <use xlink:href="#DejaVuSans-61" x="279.443359"/>
      <use xlink:href="#DejaVuSans-72" x="340.722656"/>
      <use xlink:href="#DejaVuSans-64" x="380.085938"/>
     </g>
    </g>
    <g id="line2d_20">
     <path d="M 66.6 69.248563 
L 76.6 69.248563 
L 86.6 69.248563 
" style="fill: none; stroke: #00008b; stroke-width: 1.5; stroke-linecap: square"/>
    </g>
    <g id="text_17">
     <!-- branchless -->
     <g transform="translate(94.6 72.748563) scale(0.1 -0.1)">
      <defs>
       <path id="DejaVuSans-62" d="M 3116 1747 
Q 3116 2381 2855 2742 
Q 2594 3103 2138 3103 
Q 1681 3103 1420 2742 
Q 1159 2381 1159 1747 
Q 1159 1113 1420 752 
Q 1681 391 2138 391 
Q 2594 391 2855 752 
Q 3116 1113 3116 1747 
z
M 1159 2969 
Q 1341 3281 1617 3432 
Q 1894 3584 2278 3584 
Q 2916 3584 3314 3078 
Q 3713 2572 3713 1747 
Q 3713 922 3314 415 
Q 2916 -91 2278 -91 
Q 1894 -91 1617 61 
Q 1341 213 1159 525 
L 1159 0 
L 581 0 
L 581 4863 
L 1159 4863 
L 1159 2969 
z
" transform="scale(0.015625)"/>
      </defs>
      <use xlink:href="#DejaVuSans-62"/>
      <use xlink:href="#DejaVuSans-72" x="63.476562"/>
      <use xlink:href="#DejaVuSans-61" x="104.589844"/>
      <use xlink:href="#DejaVuSans-6e" x="165.869141"/>
      <use xlink:href="#DejaVuSans-63" x="229.248047"/>
      <use xlink:href="#DejaVuSans-68" x="284.228516"/>
      <use xlink:href="#DejaVuSans-6c" x="347.607422"/>
      <use xlink:href="#DejaVuSans-65" x="375.390625"/>
      <use xlink:href="#DejaVuSans-73" x="436.914062"/>
      <use xlink:href="#DejaVuSans-73" x="489.013672"/>
     </g>
    </g>
    <g id="line2d_21">
     <path d="M 66.6 83.926688 
L 76.6 83.926688 
L 86.6 83.926688 
" style="fill: none; stroke: #006400; stroke-width: 1.5; stroke-linecap: square"/>
    </g>
    <g id="text_18">
     <!-- branchless + prefetching -->
     <g transform="translate(94.6 87.426688) scale(0.1 -0.1)">
      <defs>
       <path id="DejaVuSans-2b" d="M 2944 4013 
L 2944 2272 
L 4684 2272 
L 4684 1741 
L 2944 1741 
L 2944 0 
L 2419 0 
L 2419 1741 
L 678 1741 
L 678 2272 
L 2419 2272 
L 2419 4013 
L 2944 4013 
z
" transform="scale(0.015625)"/>
       <path id="DejaVuSans-66" d="M 2375 4863 
L 2375 4384 
L 1825 4384 
Q 1516 4384 1395 4259 
Q 1275 4134 1275 3809 
L 1275 3500 
L 2222 3500 
L 2222 3053 
L 1275 3053 
L 1275 0 
L 697 0 
L 697 3053 
L 147 3053 
L 147 3500 
L 697 3500 
L 697 3744 
Q 697 4328 969 4595 
Q 1241 4863 1831 4863 
L 2375 4863 
z
" transform="scale(0.015625)"/>
       <path id="DejaVuSans-67" d="M 2906 1791 
Q 2906 2416 2648 2759 
Q 2391 3103 1925 3103 
Q 1463 3103 1205 2759 
Q 947 2416 947 1791 
Q 947 1169 1205 825 
Q 1463 481 1925 481 
Q 2391 481 2648 825 
Q 2906 1169 2906 1791 
z
M 3481 434 
Q 3481 -459 3084 -895 
Q 2688 -1331 1869 -1331 
Q 1566 -1331 1297 -1286 
Q 1028 -1241 775 -1147 
L 775 -588 
Q 1028 -725 1275 -790 
Q 1522 -856 1778 -856 
Q 2344 -856 2625 -561 
Q 2906 -266 2906 331 
L 2906 616 
Q 2728 306 2450 153 
Q 2172 0 1784 0 
Q 1141 0 747 490 
Q 353 981 353 1791 
Q 353 2603 747 3093 
Q 1141 3584 1784 3584 
Q 2172 3584 2450 3431 
Q 2728 3278 2906 2969 
L 2906 3500 
L 3481 3500 
L 3481 434 
z
" transform="scale(0.015625)"/>
      </defs>
      <use xlink:href="#DejaVuSans-62"/>
      <use xlink:href="#DejaVuSans-72" x="63.476562"/>
      <use xlink:href="#DejaVuSans-61" x="104.589844"/>
      <use xlink:href="#DejaVuSans-6e" x="165.869141"/>
      <use xlink:href="#DejaVuSans-63" x="229.248047"/>
      <use xlink:href="#DejaVuSans-68" x="284.228516"/>
      <use xlink:href="#DejaVuSans-6c" x="347.607422"/>
      <use xlink:href="#DejaVuSans-65" x="375.390625"/>
      <use xlink:href="#DejaVuSans-73" x="436.914062"/>
      <use xlink:href="#DejaVuSans-73" x="489.013672"/>
      <use xlink:href="#DejaVuSans-20" x="541.113281"/>
      <use xlink:href="#DejaVuSans-2b" x="572.900391"/>
      <use xlink:href="#DejaVuSans-20" x="656.689453"/>
      <use xlink:href="#DejaVuSans-70" x="688.476562"/>
      <use xlink:href="#DejaVuSans-72" x="751.953125"/>
      <use xlink:href="#DejaVuSans-65" x="790.816406"/>
      <use xlink:href="#DejaVuSans-66" x="852.339844"/>
      <use xlink:href="#DejaVuSans-65" x="887.544922"/>
      <use xlink:href="#DejaVuSans-74" x="949.068359"/>
      <use xlink:href="#DejaVuSans-63" x="988.277344"/>
      <use xlink:href="#DejaVuSans-68" x="1043.257812"/>
      <use xlink:href="#DejaVuSans-69" x="1106.636719"/>
      <use xlink:href="#DejaVuSans-6e" x="1134.419922"/>
      <use xlink:href="#DejaVuSans-67" x="1197.798828"/>
     </g>
    </g>
    <g id="line2d_22">
     <path d="M 66.6 98.604813 
L 76.6 98.604813 
L 86.6 98.604813 
" style="fill: none; stroke: #00ffff; stroke-width: 1.5; stroke-linecap: square"/>
    </g>
    <g id="text_19">
     <!-- eytzinger -->
     <g transform="translate(94.6 102.104813) scale(0.1 -0.1)">
      <use xlink:href="#DejaVuSans-65"/>
      <use xlink:href="#DejaVuSans-79" x="61.523438"/>
      <use xlink:href="#DejaVuSans-74" x="120.703125"/>
      <use xlink:href="#DejaVuSans-7a" x="159.912109"/>
      <use xlink:href="#DejaVuSans-69" x="212.402344"/>
      <use xlink:href="#DejaVuSans-6e" x="240.185547"/>
      <use xlink:href="#DejaVuSans-67" x="303.564453"/>
      <use xlink:href="#DejaVuSans-65" x="367.041016"/>
      <use xlink:href="#DejaVuSans-72" x="428.564453"/>
     </g>
    </g>
    <g id="line2d_23">
     <path d="M 66.6 113.282938 
L 76.6 113.282938 
L 86.6 113.282938 
" style="fill: none; stroke: #ffa500; stroke-width: 1.5; stroke-linecap: square"/>
    </g>
    <g id="text_20">
     <!-- eytzinger (with prefetching) -->
     <g transform="translate(94.6 116.782938) scale(0.1 -0.1)">
      <defs>
       <path id="DejaVuSans-77" d="M 269 3500 
L 844 3500 
L 1563 769 
L 2278 3500 
L 2956 3500 
L 3675 769 
L 4391 3500 
L 4966 3500 
L 4050 0 
L 3372 0 
L 2619 2869 
L 1863 0 
L 1184 0 
L 269 3500 
z
" transform="scale(0.015625)"/>
      </defs>
      <use xlink:href="#DejaVuSans-65"/>
      <use xlink:href="#DejaVuSans-79" x="61.523438"/>
      <use xlink:href="#DejaVuSans-74" x="120.703125"/>
      <use xlink:href="#DejaVuSans-7a" x="159.912109"/>
      <use xlink:href="#DejaVuSans-69" x="212.402344"/>
      <use xlink:href="#DejaVuSans-6e" x="240.185547"/>
      <use xlink:href="#DejaVuSans-67" x="303.564453"/>
      <use xlink:href="#DejaVuSans-65" x="367.041016"/>
      <use xlink:href="#DejaVuSans-72" x="428.564453"/>
      <use xlink:href="#DejaVuSans-20" x="469.677734"/>
      <use xlink:href="#DejaVuSans-28" x="501.464844"/>
      <use xlink:href="#DejaVuSans-77" x="540.478516"/>
      <use xlink:href="#DejaVuSans-69" x="622.265625"/>
      <use xlink:href="#DejaVuSans-74" x="650.048828"/>
      <use xlink:href="#DejaVuSans-68" x="689.257812"/>
      <use xlink:href="#DejaVuSans-20" x="752.636719"/>
      <use xlink:href="#DejaVuSans-70" x="784.423828"/>
      <use xlink:href="#DejaVuSans-72" x="847.900391"/>
      <use xlink:href="#DejaVuSans-65" x="886.763672"/>
      <use xlink:href="#DejaVuSans-66" x="948.287109"/>
      <use xlink:href="#DejaVuSans-65" x="983.492188"/>
      <use xlink:href="#DejaVuSans-74" x="1045.015625"/>
      <use xlink:href="#DejaVuSans-63" x="1084.224609"/>
      <use xlink:href="#DejaVuSans-68" x="1139.205078"/>
      <use xlink:href="#DejaVuSans-69" x="1202.583984"/>
      <use xlink:href="#DejaVuSans-6e" x="1230.367188"/>
      <use xlink:href="#DejaVuSans-67" x="1293.746094"/>
      <use xlink:href="#DejaVuSans-29" x="1357.222656"/>
     </g>
    </g>
    <g id="line2d_24">
     <path d="M 66.6 127.961063 
L 76.6 127.961063 
L 86.6 127.961063 
" style="fill: none; stroke: #800080; stroke-width: 1.5; stroke-linecap: square"/>
    </g>
    <g id="text_21">
     <!-- eytzinger (fixed number of iterations) -->
     <g transform="translate(94.6 131.461063) scale(0.1 -0.1)">
      <defs>
       <path id="DejaVuSans-78" d="M 3513 3500 
L 2247 1797 
L 3578 0 
L 2900 0 
L 1881 1375 
L 863 0 
L 184 0 
L 1544 1831 
L 300 3500 
L 978 3500 
L 1906 2253 
L 2834 3500 
L 3513 3500 
z
" transform="scale(0.015625)"/>
       <path id="DejaVuSans-75" d="M 544 1381 
L 544 3500 
L 1119 3500 
L 1119 1403 
Q 1119 906 1312 657 
Q 1506 409 1894 409 
Q 2359 409 2629 706 
Q 2900 1003 2900 1516 
L 2900 3500 
L 3475 3500 
L 3475 0 
L 2900 0 
L 2900 538 
Q 2691 219 2414 64 
Q 2138 -91 1772 -91 
Q 1169 -91 856 284 
Q 544 659 544 1381 
z
M 1991 3584 
L 1991 3584 
z
" transform="scale(0.015625)"/>
       <path id="DejaVuSans-6d" d="M 3328 2828 
Q 3544 3216 3844 3400 
Q 4144 3584 4550 3584 
Q 5097 3584 5394 3201 
Q 5691 2819 5691 2113 
L 5691 0 
L 5113 0 
L 5113 2094 
Q 5113 2597 4934 2840 
Q 4756 3084 4391 3084 
Q 3944 3084 3684 2787 
Q 3425 2491 3425 1978 
L 3425 0 
L 2847 0 
L 2847 2094 
Q 2847 2600 2669 2842 
Q 2491 3084 2119 3084 
Q 1678 3084 1418 2786 
Q 1159 2488 1159 1978 
L 1159 0 
L 581 0 
L 581 3500 
L 1159 3500 
L 1159 2956 
Q 1356 3278 1631 3431 
Q 1906 3584 2284 3584 
Q 2666 3584 2933 3390 
Q 3200 3197 3328 2828 
z
" transform="scale(0.015625)"/>
      </defs>
      <use xlink:href="#DejaVuSans-65"/>
      <use xlink:href="#DejaVuSans-79" x="61.523438"/>
      <use xlink:href="#DejaVuSans-74" x="120.703125"/>
      <use xlink:href="#DejaVuSans-7a" x="159.912109"/>
      <use xlink:href="#DejaVuSans-69" x="212.402344"/>
      <use xlink:href="#DejaVuSans-6e" x="240.185547"/>
      <use xlink:href="#DejaVuSans-67" x="303.564453"/>
      <use xlink:href="#DejaVuSans-65" x="367.041016"/>
      <use xlink:href="#DejaVuSans-72" x="428.564453"/>
      <use xlink:href="#DejaVuSans-20" x="469.677734"/>
      <use xlink:href="#DejaVuSans-28" x="501.464844"/>
      <use xlink:href="#DejaVuSans-66" x="540.478516"/>
      <use xlink:href="#DejaVuSans-69" x="575.683594"/>
      <use xlink:href="#DejaVuSans-78" x="603.466797"/>
      <use xlink:href="#DejaVuSans-65" x="659.521484"/>
      <use xlink:href="#DejaVuSans-64" x="721.044922"/>
      <use xlink:href="#DejaVuSans-20" x="784.521484"/>
      <use xlink:href="#DejaVuSans-6e" x="816.308594"/>
      <use xlink:href="#DejaVuSans-75" x="879.6875"/>
      <use xlink:href="#DejaVuSans-6d" x="943.066406"/>
      <use xlink:href="#DejaVuSans-62" x="1040.478516"/>
      <use xlink:href="#DejaVuSans-65" x="1103.955078"/>
      <use xlink:href="#DejaVuSans-72" x="1165.478516"/>
      <use xlink:href="#DejaVuSans-20" x="1206.591797"/>
      <use xlink:href="#DejaVuSans-6f" x="1238.378906"/>
      <use xlink:href="#DejaVuSans-66" x="1299.560547"/>
      <use xlink:href="#DejaVuSans-20" x="1334.765625"/>
      <use xlink:href="#DejaVuSans-69" x="1366.552734"/>
      <use xlink:href="#DejaVuSans-74" x="1394.335938"/>
      <use xlink:href="#DejaVuSans-65" x="1433.544922"/>
      <use xlink:href="#DejaVuSans-72" x="1495.068359"/>
      <use xlink:href="#DejaVuSans-61" x="1536.181641"/>
      <use xlink:href="#DejaVuSans-74" x="1597.460938"/>
      <use xlink:href="#DejaVuSans-69" x="1636.669922"/>
      <use xlink:href="#DejaVuSans-6f" x="1664.453125"/>
      <use xlink:href="#DejaVuSans-6e" x="1725.634766"/>
      <use xlink:href="#DejaVuSans-73" x="1789.013672"/>
      <use xlink:href="#DejaVuSans-29" x="1841.113281"/>
     </g>
    </g>
   </g>
  </g>
 </g>
 <defs>
  <clipPath id="p77a7fc341d">
   <rect x="57.6" y="41.472" width="357.12" height="266.112"/>
  </clipPath>
 </defs>
</svg>
