<?xml version="1.0" encoding="utf-8" standalone="no"?>
<!DOCTYPE svg PUBLIC "-//W3C//DTD SVG 1.1//EN"
  "http://www.w3.org/Graphics/SVG/1.1/DTD/svg11.dtd">
<svg xmlns:xlink="http://www.w3.org/1999/xlink" width="460.8pt" height="345.6pt" viewBox="0 0 460.8 345.6" xmlns="http://www.w3.org/2000/svg" version="1.1">
 <metadata>
  <rdf:RDF xmlns:dc="http://purl.org/dc/elements/1.1/" xmlns:cc="http://creativecommons.org/ns#" xmlns:rdf="http://www.w3.org/1999/02/22-rdf-syntax-ns#">
   <cc:Work>
    <dc:type rdf:resource="http://purl.org/dc/dcmitype/StillImage"/>
    <dc:date>2024-04-15T18:55:57.219714</dc:date>
    <dc:format>image/svg+xml</dc:format>
    <dc:creator>
     <cc:Agent>
      <dc:title>Matplotlib v3.8.2, https://matplotlib.org/</dc:title>
     </cc:Agent>
    </dc:creator>
   </cc:Work>
  </rdf:RDF>
 </metadata>
 <defs>
  <style type="text/css">*{stroke-linejoin: round; stroke-linecap: butt}</style>
 </defs>
 <g id="figure_1">
  <g id="patch_1">
   <path d="M 0 345.6 
L 460.8 345.6 
L 460.8 0 
L 0 0 
z
" style="fill: #ffffff"/>
  </g>
  <g id="axes_1">
   <g id="patch_2">
    <path d="M 57.6 307.584 
L 414.72 307.584 
L 414.72 41.472 
L 57.6 41.472 
z
" style="fill: #ffffff"/>
   </g>
   <g id="matplotlib.axis_1">
    <g id="xtick_1">
     <g id="line2d_1">
      <defs>
       <path id="m9bbcecc755" d="M 0 0 
L 0 3.5 
" style="stroke: #000000; stroke-width: 0.8"/>
      </defs>
      <g>
       <use xlink:href="#m9bbcecc755" x="83.28465" y="307.584" style="stroke: #000000; stroke-width: 0.8"/>
      </g>
     </g>
     <g id="text_1">
      <!-- $\mathdefault{2^{8}}$ -->
      <g transform="translate(77.68465 322.182437) scale(0.1 -0.1)">
       <defs>
        <path id="DejaVuSans-32" d="M 1228 531 
L 3431 531 
L 3431 0 
L 469 0 
L 469 531 
Q 828 903 1448 1529 
Q 2069 2156 2228 2338 
Q 2531 2678 2651 2914 
Q 2772 3150 2772 3378 
Q 2772 3750 2511 3984 
Q 2250 4219 1831 4219 
Q 1534 4219 1204 4116 
Q 875 4013 500 3803 
L 500 4441 
Q 881 4594 1212 4672 
Q 1544 4750 1819 4750 
Q 2544 4750 2975 4387 
Q 3406 4025 3406 3419 
Q 3406 3131 3298 2873 
Q 3191 2616 2906 2266 
Q 2828 2175 2409 1742 
Q 1991 1309 1228 531 
z
" transform="scale(0.015625)"/>
        <path id="DejaVuSans-38" d="M 2034 2216 
Q 1584 2216 1326 1975 
Q 1069 1734 1069 1313 
Q 1069 891 1326 650 
Q 1584 409 2034 409 
Q 2484 409 2743 651 
Q 3003 894 3003 1313 
Q 3003 1734 2745 1975 
Q 2488 2216 2034 2216 
z
M 1403 2484 
Q 997 2584 770 2862 
Q 544 3141 544 3541 
Q 544 4100 942 4425 
Q 1341 4750 2034 4750 
Q 2731 4750 3128 4425 
Q 3525 4100 3525 3541 
Q 3525 3141 3298 2862 
Q 3072 2584 2669 2484 
Q 3125 2378 3379 2068 
Q 3634 1759 3634 1313 
Q 3634 634 3220 271 
Q 2806 -91 2034 -91 
Q 1263 -91 848 271 
Q 434 634 434 1313 
Q 434 1759 690 2068 
Q 947 2378 1403 2484 
z
M 1172 3481 
Q 1172 3119 1398 2916 
Q 1625 2713 2034 2713 
Q 2441 2713 2670 2916 
Q 2900 3119 2900 3481 
Q 2900 3844 2670 4047 
Q 2441 4250 2034 4250 
Q 1625 4250 1398 4047 
Q 1172 3844 1172 3481 
z
" transform="scale(0.015625)"/>
       </defs>
       <use xlink:href="#DejaVuSans-32" transform="translate(0 0.765625)"/>
       <use xlink:href="#DejaVuSans-38" transform="translate(64.580078 39.046875) scale(0.7)"/>
      </g>
     </g>
    </g>
    <g id="xtick_2">
     <g id="line2d_2">
      <g>
       <use xlink:href="#m9bbcecc755" x="125.894119" y="307.584" style="stroke: #000000; stroke-width: 0.8"/>
      </g>
     </g>
     <g id="text_2">
      <!-- $\mathdefault{2^{10}}$ -->
      <g transform="translate(118.044119 322.182437) scale(0.1 -0.1)">
       <defs>
        <path id="DejaVuSans-31" d="M 794 531 
L 1825 531 
L 1825 4091 
L 703 3866 
L 703 4441 
L 1819 4666 
L 2450 4666 
L 2450 531 
L 3481 531 
L 3481 0 
L 794 0 
L 794 531 
z
" transform="scale(0.015625)"/>
        <path id="DejaVuSans-30" d="M 2034 4250 
Q 1547 4250 1301 3770 
Q 1056 3291 1056 2328 
Q 1056 1369 1301 889 
Q 1547 409 2034 409 
Q 2525 409 2770 889 
Q 3016 1369 3016 2328 
Q 3016 3291 2770 3770 
Q 2525 4250 2034 4250 
z
M 2034 4750 
Q 2819 4750 3233 4129 
Q 3647 3509 3647 2328 
Q 3647 1150 3233 529 
Q 2819 -91 2034 -91 
Q 1250 -91 836 529 
Q 422 1150 422 2328 
Q 422 3509 836 4129 
Q 1250 4750 2034 4750 
z
" transform="scale(0.015625)"/>
       </defs>
       <use xlink:href="#DejaVuSans-32" transform="translate(0 0.765625)"/>
       <use xlink:href="#DejaVuSans-31" transform="translate(64.580078 39.046875) scale(0.7)"/>
       <use xlink:href="#DejaVuSans-30" transform="translate(109.116211 39.046875) scale(0.7)"/>
      </g>
     </g>
    </g>
    <g id="xtick_3">
     <g id="line2d_3">
      <g>
       <use xlink:href="#m9bbcecc755" x="168.503589" y="307.584" style="stroke: #000000; stroke-width: 0.8"/>
      </g>
     </g>
     <g id="text_3">
      <!-- $\mathdefault{2^{12}}$ -->
      <g transform="translate(160.653589 322.182437) scale(0.1 -0.1)">
       <use xlink:href="#DejaVuSans-32" transform="translate(0 0.765625)"/>
       <use xlink:href="#DejaVuSans-31" transform="translate(64.580078 39.046875) scale(0.7)"/>
       <use xlink:href="#DejaVuSans-32" transform="translate(109.116211 39.046875) scale(0.7)"/>
      </g>
     </g>
    </g>
    <g id="xtick_4">
     <g id="line2d_4">
      <g>
       <use xlink:href="#m9bbcecc755" x="211.113058" y="307.584" style="stroke: #000000; stroke-width: 0.8"/>
      </g>
     </g>
     <g id="text_4">
      <!-- $\mathdefault{2^{14}}$ -->
      <g transform="translate(203.263058 322.182437) scale(0.1 -0.1)">
       <defs>
        <path id="DejaVuSans-34" d="M 2419 4116 
L 825 1625 
L 2419 1625 
L 2419 4116 
z
M 2253 4666 
L 3047 4666 
L 3047 1625 
L 3713 1625 
L 3713 1100 
L 3047 1100 
L 3047 0 
L 2419 0 
L 2419 1100 
L 313 1100 
L 313 1709 
L 2253 4666 
z
" transform="scale(0.015625)"/>
       </defs>
       <use xlink:href="#DejaVuSans-32" transform="translate(0 0.684375)"/>
       <use xlink:href="#DejaVuSans-31" transform="translate(64.580078 38.965625) scale(0.7)"/>
       <use xlink:href="#DejaVuSans-34" transform="translate(109.116211 38.965625) scale(0.7)"/>
      </g>
     </g>
    </g>
    <g id="xtick_5">
     <g id="line2d_5">
      <g>
       <use xlink:href="#m9bbcecc755" x="253.722528" y="307.584" style="stroke: #000000; stroke-width: 0.8"/>
      </g>
     </g>
     <g id="text_5">
      <!-- $\mathdefault{2^{16}}$ -->
      <g transform="translate(245.872528 322.182437) scale(0.1 -0.1)">
       <defs>
        <path id="DejaVuSans-36" d="M 2113 2584 
Q 1688 2584 1439 2293 
Q 1191 2003 1191 1497 
Q 1191 994 1439 701 
Q 1688 409 2113 409 
Q 2538 409 2786 701 
Q 3034 994 3034 1497 
Q 3034 2003 2786 2293 
Q 2538 2584 2113 2584 
z
M 3366 4563 
L 3366 3988 
Q 3128 4100 2886 4159 
Q 2644 4219 2406 4219 
Q 1781 4219 1451 3797 
Q 1122 3375 1075 2522 
Q 1259 2794 1537 2939 
Q 1816 3084 2150 3084 
Q 2853 3084 3261 2657 
Q 3669 2231 3669 1497 
Q 3669 778 3244 343 
Q 2819 -91 2113 -91 
Q 1303 -91 875 529 
Q 447 1150 447 2328 
Q 447 3434 972 4092 
Q 1497 4750 2381 4750 
Q 2619 4750 2861 4703 
Q 3103 4656 3366 4563 
z
" transform="scale(0.015625)"/>
       </defs>
       <use xlink:href="#DejaVuSans-32" transform="translate(0 0.765625)"/>
       <use xlink:href="#DejaVuSans-31" transform="translate(64.580078 39.046875) scale(0.7)"/>
       <use xlink:href="#DejaVuSans-36" transform="translate(109.116211 39.046875) scale(0.7)"/>
      </g>
     </g>
    </g>
    <g id="xtick_6">
     <g id="line2d_6">
      <g>
       <use xlink:href="#m9bbcecc755" x="296.331997" y="307.584" style="stroke: #000000; stroke-width: 0.8"/>
      </g>
     </g>
     <g id="text_6">
      <!-- $\mathdefault{2^{18}}$ -->
      <g transform="translate(288.481997 322.182437) scale(0.1 -0.1)">
       <use xlink:href="#DejaVuSans-32" transform="translate(0 0.765625)"/>
       <use xlink:href="#DejaVuSans-31" transform="translate(64.580078 39.046875) scale(0.7)"/>
       <use xlink:href="#DejaVuSans-38" transform="translate(109.116211 39.046875) scale(0.7)"/>
      </g>
     </g>
    </g>
    <g id="xtick_7">
     <g id="line2d_7">
      <g>
       <use xlink:href="#m9bbcecc755" x="338.941466" y="307.584" style="stroke: #000000; stroke-width: 0.8"/>
      </g>
     </g>
     <g id="text_7">
      <!-- $\mathdefault{2^{20}}$ -->
      <g transform="translate(331.091466 322.182437) scale(0.1 -0.1)">
       <use xlink:href="#DejaVuSans-32" transform="translate(0 0.765625)"/>
       <use xlink:href="#DejaVuSans-32" transform="translate(64.580078 39.046875) scale(0.7)"/>
       <use xlink:href="#DejaVuSans-30" transform="translate(109.116211 39.046875) scale(0.7)"/>
      </g>
     </g>
    </g>
    <g id="xtick_8">
     <g id="line2d_8">
      <g>
       <use xlink:href="#m9bbcecc755" x="381.550936" y="307.584" style="stroke: #000000; stroke-width: 0.8"/>
      </g>
     </g>
     <g id="text_8">
      <!-- $\mathdefault{2^{22}}$ -->
      <g transform="translate(373.700936 322.182437) scale(0.1 -0.1)">
       <use xlink:href="#DejaVuSans-32" transform="translate(0 0.765625)"/>
       <use xlink:href="#DejaVuSans-32" transform="translate(64.580078 39.046875) scale(0.7)"/>
       <use xlink:href="#DejaVuSans-32" transform="translate(109.116211 39.046875) scale(0.7)"/>
      </g>
     </g>
    </g>
    <g id="text_9">
     <!-- Array size -->
     <g transform="translate(211.409219 335.860562) scale(0.1 -0.1)">
      <defs>
       <path id="DejaVuSans-41" d="M 2188 4044 
L 1331 1722 
L 3047 1722 
L 2188 4044 
z
M 1831 4666 
L 2547 4666 
L 4325 0 
L 3669 0 
L 3244 1197 
L 1141 1197 
L 716 0 
L 50 0 
L 1831 4666 
z
" transform="scale(0.015625)"/>
       <path id="DejaVuSans-72" d="M 2631 2963 
Q 2534 3019 2420 3045 
Q 2306 3072 2169 3072 
Q 1681 3072 1420 2755 
Q 1159 2438 1159 1844 
L 1159 0 
L 581 0 
L 581 3500 
L 1159 3500 
L 1159 2956 
Q 1341 3275 1631 3429 
Q 1922 3584 2338 3584 
Q 2397 3584 2469 3576 
Q 2541 3569 2628 3553 
L 2631 2963 
z
" transform="scale(0.015625)"/>
       <path id="DejaVuSans-61" d="M 2194 1759 
Q 1497 1759 1228 1600 
Q 959 1441 959 1056 
Q 959 750 1161 570 
Q 1363 391 1709 391 
Q 2188 391 2477 730 
Q 2766 1069 2766 1631 
L 2766 1759 
L 2194 1759 
z
M 3341 1997 
L 3341 0 
L 2766 0 
L 2766 531 
Q 2569 213 2275 61 
Q 1981 -91 1556 -91 
Q 1019 -91 701 211 
Q 384 513 384 1019 
Q 384 1609 779 1909 
Q 1175 2209 1959 2209 
L 2766 2209 
L 2766 2266 
Q 2766 2663 2505 2880 
Q 2244 3097 1772 3097 
Q 1472 3097 1187 3025 
Q 903 2953 641 2809 
L 641 3341 
Q 956 3463 1253 3523 
Q 1550 3584 1831 3584 
Q 2591 3584 2966 3190 
Q 3341 2797 3341 1997 
z
" transform="scale(0.015625)"/>
       <path id="DejaVuSans-79" d="M 2059 -325 
Q 1816 -950 1584 -1140 
Q 1353 -1331 966 -1331 
L 506 -1331 
L 506 -850 
L 844 -850 
Q 1081 -850 1212 -737 
Q 1344 -625 1503 -206 
L 1606 56 
L 191 3500 
L 800 3500 
L 1894 763 
L 2988 3500 
L 3597 3500 
L 2059 -325 
z
" transform="scale(0.015625)"/>
       <path id="DejaVuSans-20" transform="scale(0.015625)"/>
       <path id="DejaVuSans-73" d="M 2834 3397 
L 2834 2853 
Q 2591 2978 2328 3040 
Q 2066 3103 1784 3103 
Q 1356 3103 1142 2972 
Q 928 2841 928 2578 
Q 928 2378 1081 2264 
Q 1234 2150 1697 2047 
L 1894 2003 
Q 2506 1872 2764 1633 
Q 3022 1394 3022 966 
Q 3022 478 2636 193 
Q 2250 -91 1575 -91 
Q 1294 -91 989 -36 
Q 684 19 347 128 
L 347 722 
Q 666 556 975 473 
Q 1284 391 1588 391 
Q 1994 391 2212 530 
Q 2431 669 2431 922 
Q 2431 1156 2273 1281 
Q 2116 1406 1581 1522 
L 1381 1569 
Q 847 1681 609 1914 
Q 372 2147 372 2553 
Q 372 3047 722 3315 
Q 1072 3584 1716 3584 
Q 2034 3584 2315 3537 
Q 2597 3491 2834 3397 
z
" transform="scale(0.015625)"/>
       <path id="DejaVuSans-69" d="M 603 3500 
L 1178 3500 
L 1178 0 
L 603 0 
L 603 3500 
z
M 603 4863 
L 1178 4863 
L 1178 4134 
L 603 4134 
L 603 4863 
z
" transform="scale(0.015625)"/>
       <path id="DejaVuSans-7a" d="M 353 3500 
L 3084 3500 
L 3084 2975 
L 922 459 
L 3084 459 
L 3084 0 
L 275 0 
L 275 525 
L 2438 3041 
L 353 3041 
L 353 3500 
z
" transform="scale(0.015625)"/>
       <path id="DejaVuSans-65" d="M 3597 1894 
L 3597 1613 
L 953 1613 
Q 991 1019 1311 708 
Q 1631 397 2203 397 
Q 2534 397 2845 478 
Q 3156 559 3463 722 
L 3463 178 
Q 3153 47 2828 -22 
Q 2503 -91 2169 -91 
Q 1331 -91 842 396 
Q 353 884 353 1716 
Q 353 2575 817 3079 
Q 1281 3584 2069 3584 
Q 2775 3584 3186 3129 
Q 3597 2675 3597 1894 
z
M 3022 2063 
Q 3016 2534 2758 2815 
Q 2500 3097 2075 3097 
Q 1594 3097 1305 2825 
Q 1016 2553 972 2059 
L 3022 2063 
z
" transform="scale(0.015625)"/>
      </defs>
      <use xlink:href="#DejaVuSans-41"/>
      <use xlink:href="#DejaVuSans-72" x="68.408203"/>
      <use xlink:href="#DejaVuSans-72" x="107.771484"/>
      <use xlink:href="#DejaVuSans-61" x="148.884766"/>
      <use xlink:href="#DejaVuSans-79" x="210.164062"/>
      <use xlink:href="#DejaVuSans-20" x="269.34375"/>
      <use xlink:href="#DejaVuSans-73" x="301.130859"/>
      <use xlink:href="#DejaVuSans-69" x="353.230469"/>
      <use xlink:href="#DejaVuSans-7a" x="381.013672"/>
      <use xlink:href="#DejaVuSans-65" x="433.503906"/>
     </g>
    </g>
   </g>
   <g id="matplotlib.axis_2">
    <g id="ytick_1">
     <g id="line2d_9">
      <defs>
       <path id="m6da6202668" d="M 0 0 
L -3.5 0 
" style="stroke: #000000; stroke-width: 0.8"/>
      </defs>
      <g>
       <use xlink:href="#m6da6202668" x="57.6" y="307.584" style="stroke: #000000; stroke-width: 0.8"/>
      </g>
     </g>
     <g id="text_10">
      <!-- 0 -->
      <g transform="translate(44.2375 311.383219) scale(0.1 -0.1)">
       <use xlink:href="#DejaVuSans-30"/>
      </g>
     </g>
    </g>
    <g id="ytick_2">
     <g id="line2d_10">
      <g>
       <use xlink:href="#m6da6202668" x="57.6" y="268.495065" style="stroke: #000000; stroke-width: 0.8"/>
      </g>
     </g>
     <g id="text_11">
      <!-- 50 -->
      <g transform="translate(37.875 272.294283) scale(0.1 -0.1)">
       <defs>
        <path id="DejaVuSans-35" d="M 691 4666 
L 3169 4666 
L 3169 4134 
L 1269 4134 
L 1269 2991 
Q 1406 3038 1543 3061 
Q 1681 3084 1819 3084 
Q 2600 3084 3056 2656 
Q 3513 2228 3513 1497 
Q 3513 744 3044 326 
Q 2575 -91 1722 -91 
Q 1428 -91 1123 -41 
Q 819 9 494 109 
L 494 744 
Q 775 591 1075 516 
Q 1375 441 1709 441 
Q 2250 441 2565 725 
Q 2881 1009 2881 1497 
Q 2881 1984 2565 2268 
Q 2250 2553 1709 2553 
Q 1456 2553 1204 2497 
Q 953 2441 691 2322 
L 691 4666 
z
" transform="scale(0.015625)"/>
       </defs>
       <use xlink:href="#DejaVuSans-35"/>
       <use xlink:href="#DejaVuSans-30" x="63.623047"/>
      </g>
     </g>
    </g>
    <g id="ytick_3">
     <g id="line2d_11">
      <g>
       <use xlink:href="#m6da6202668" x="57.6" y="229.406129" style="stroke: #000000; stroke-width: 0.8"/>
      </g>
     </g>
     <g id="text_12">
      <!-- 100 -->
      <g transform="translate(31.5125 233.205348) scale(0.1 -0.1)">
       <use xlink:href="#DejaVuSans-31"/>
       <use xlink:href="#DejaVuSans-30" x="63.623047"/>
       <use xlink:href="#DejaVuSans-30" x="127.246094"/>
      </g>
     </g>
    </g>
    <g id="ytick_4">
     <g id="line2d_12">
      <g>
       <use xlink:href="#m6da6202668" x="57.6" y="190.317194" style="stroke: #000000; stroke-width: 0.8"/>
      </g>
     </g>
     <g id="text_13">
      <!-- 150 -->
      <g transform="translate(31.5125 194.116412) scale(0.1 -0.1)">
       <use xlink:href="#DejaVuSans-31"/>
       <use xlink:href="#DejaVuSans-35" x="63.623047"/>
       <use xlink:href="#DejaVuSans-30" x="127.246094"/>
      </g>
     </g>
    </g>
    <g id="ytick_5">
     <g id="line2d_13">
      <g>
       <use xlink:href="#m6da6202668" x="57.6" y="151.228258" style="stroke: #000000; stroke-width: 0.8"/>
      </g>
     </g>
     <g id="text_14">
      <!-- 200 -->
      <g transform="translate(31.5125 155.027477) scale(0.1 -0.1)">
       <use xlink:href="#DejaVuSans-32"/>
       <use xlink:href="#DejaVuSans-30" x="63.623047"/>
       <use xlink:href="#DejaVuSans-30" x="127.246094"/>
      </g>
     </g>
    </g>
    <g id="ytick_6">
     <g id="line2d_14">
      <g>
       <use xlink:href="#m6da6202668" x="57.6" y="112.139323" style="stroke: #000000; stroke-width: 0.8"/>
      </g>
     </g>
     <g id="text_15">
      <!-- 250 -->
      <g transform="translate(31.5125 115.938542) scale(0.1 -0.1)">
       <use xlink:href="#DejaVuSans-32"/>
       <use xlink:href="#DejaVuSans-35" x="63.623047"/>
       <use xlink:href="#DejaVuSans-30" x="127.246094"/>
      </g>
     </g>
    </g>
    <g id="ytick_7">
     <g id="line2d_15">
      <g>
       <use xlink:href="#m6da6202668" x="57.6" y="73.050387" style="stroke: #000000; stroke-width: 0.8"/>
      </g>
     </g>
     <g id="text_16">
      <!-- 300 -->
      <g transform="translate(31.5125 76.849606) scale(0.1 -0.1)">
       <defs>
        <path id="DejaVuSans-33" d="M 2597 2516 
Q 3050 2419 3304 2112 
Q 3559 1806 3559 1356 
Q 3559 666 3084 287 
Q 2609 -91 1734 -91 
Q 1441 -91 1130 -33 
Q 819 25 488 141 
L 488 750 
Q 750 597 1062 519 
Q 1375 441 1716 441 
Q 2309 441 2620 675 
Q 2931 909 2931 1356 
Q 2931 1769 2642 2001 
Q 2353 2234 1838 2234 
L 1294 2234 
L 1294 2753 
L 1863 2753 
Q 2328 2753 2575 2939 
Q 2822 3125 2822 3475 
Q 2822 3834 2567 4026 
Q 2313 4219 1838 4219 
Q 1578 4219 1281 4162 
Q 984 4106 628 3988 
L 628 4550 
Q 988 4650 1302 4700 
Q 1616 4750 1894 4750 
Q 2613 4750 3031 4423 
Q 3450 4097 3450 3541 
Q 3450 3153 3228 2886 
Q 3006 2619 2597 2516 
z
" transform="scale(0.015625)"/>
       </defs>
       <use xlink:href="#DejaVuSans-33"/>
       <use xlink:href="#DejaVuSans-30" x="63.623047"/>
       <use xlink:href="#DejaVuSans-30" x="127.246094"/>
      </g>
     </g>
    </g>
    <g id="text_17">
     <!-- Latency (ns) -->
     <g transform="translate(25.432812 205.556125) rotate(-90) scale(0.1 -0.1)">
      <defs>
       <path id="DejaVuSans-4c" d="M 628 4666 
L 1259 4666 
L 1259 531 
L 3531 531 
L 3531 0 
L 628 0 
L 628 4666 
z
" transform="scale(0.015625)"/>
       <path id="DejaVuSans-74" d="M 1172 4494 
L 1172 3500 
L 2356 3500 
L 2356 3053 
L 1172 3053 
L 1172 1153 
Q 1172 725 1289 603 
Q 1406 481 1766 481 
L 2356 481 
L 2356 0 
L 1766 0 
Q 1100 0 847 248 
Q 594 497 594 1153 
L 594 3053 
L 172 3053 
L 172 3500 
L 594 3500 
L 594 4494 
L 1172 4494 
z
" transform="scale(0.015625)"/>
       <path id="DejaVuSans-6e" d="M 3513 2113 
L 3513 0 
L 2938 0 
L 2938 2094 
Q 2938 2591 2744 2837 
Q 2550 3084 2163 3084 
Q 1697 3084 1428 2787 
Q 1159 2491 1159 1978 
L 1159 0 
L 581 0 
L 581 3500 
L 1159 3500 
L 1159 2956 
Q 1366 3272 1645 3428 
Q 1925 3584 2291 3584 
Q 2894 3584 3203 3211 
Q 3513 2838 3513 2113 
z
" transform="scale(0.015625)"/>
       <path id="DejaVuSans-63" d="M 3122 3366 
L 3122 2828 
Q 2878 2963 2633 3030 
Q 2388 3097 2138 3097 
Q 1578 3097 1268 2742 
Q 959 2388 959 1747 
Q 959 1106 1268 751 
Q 1578 397 2138 397 
Q 2388 397 2633 464 
Q 2878 531 3122 666 
L 3122 134 
Q 2881 22 2623 -34 
Q 2366 -91 2075 -91 
Q 1284 -91 818 406 
Q 353 903 353 1747 
Q 353 2603 823 3093 
Q 1294 3584 2113 3584 
Q 2378 3584 2631 3529 
Q 2884 3475 3122 3366 
z
" transform="scale(0.015625)"/>
       <path id="DejaVuSans-28" d="M 1984 4856 
Q 1566 4138 1362 3434 
Q 1159 2731 1159 2009 
Q 1159 1288 1364 580 
Q 1569 -128 1984 -844 
L 1484 -844 
Q 1016 -109 783 600 
Q 550 1309 550 2009 
Q 550 2706 781 3412 
Q 1013 4119 1484 4856 
L 1984 4856 
z
" transform="scale(0.015625)"/>
       <path id="DejaVuSans-29" d="M 513 4856 
L 1013 4856 
Q 1481 4119 1714 3412 
Q 1947 2706 1947 2009 
Q 1947 1309 1714 600 
Q 1481 -109 1013 -844 
L 513 -844 
Q 928 -128 1133 580 
Q 1338 1288 1338 2009 
Q 1338 2731 1133 3434 
Q 928 4138 513 4856 
z
" transform="scale(0.015625)"/>
      </defs>
      <use xlink:href="#DejaVuSans-4c"/>
      <use xlink:href="#DejaVuSans-61" x="55.712891"/>
      <use xlink:href="#DejaVuSans-74" x="116.992188"/>
      <use xlink:href="#DejaVuSans-65" x="156.201172"/>
      <use xlink:href="#DejaVuSans-6e" x="217.724609"/>
      <use xlink:href="#DejaVuSans-63" x="281.103516"/>
      <use xlink:href="#DejaVuSans-79" x="336.083984"/>
      <use xlink:href="#DejaVuSans-20" x="395.263672"/>
      <use xlink:href="#DejaVuSans-28" x="427.050781"/>
      <use xlink:href="#DejaVuSans-6e" x="466.064453"/>
      <use xlink:href="#DejaVuSans-73" x="529.443359"/>
      <use xlink:href="#DejaVuSans-29" x="581.542969"/>
     </g>
    </g>
   </g>
   <g id="line2d_16">
    <path d="M 57.6 289.46237 
L 62.219109 288.555506 
L 67.261945 287.883177 
L 71.942128 287.218665 
L 76.902598 286.038179 
L 81.6828 284.216634 
L 86.474973 283.755385 
L 91.367206 283.505216 
L 96.144749 282.488903 
L 101.029151 280.010665 
L 105.824883 279.244522 
L 110.669803 279.549416 
L 115.492139 278.939628 
L 120.350214 277.657511 
L 125.165163 275.843784 
L 129.990867 275.085459 
L 134.818816 274.194231 
L 139.649701 273.342093 
L 144.469829 271.856713 
L 149.30142 270.426058 
L 154.129401 270.160253 
L 158.952852 269.542648 
L 163.775581 268.729598 
L 168.608465 265.321043 
L 173.429695 266.900236 
L 178.258896 261.803039 
L 183.082638 265.133416 
L 187.908582 264.445451 
L 192.737117 263.780939 
L 197.563201 263.108609 
L 202.388132 261.76395 
L 207.213943 259.879863 
L 212.038846 259.64533 
L 216.865406 259.168445 
L 221.691748 258.417937 
L 226.516827 257.120184 
L 231.343037 256.142961 
L 236.168624 254.62631 
L 240.994634 253.711629 
L 245.820004 252.836037 
L 250.645574 251.436653 
L 255.471362 247.473035 
L 260.29729 247.504306 
L 265.122867 244.572636 
L 269.948834 242.626007 
L 274.774373 239.068914 
L 279.600146 237.919699 
L 284.425909 235.887075 
L 289.251561 232.744324 
L 294.077367 230.930598 
L 298.903017 228.280368 
L 303.728762 225.809947 
L 308.554501 222.792281 
L 313.380215 221.377262 
L 318.205893 217.093114 
L 323.031607 214.091084 
L 327.857314 213.71583 
L 332.683017 210.987423 
L 337.508716 208.66554 
L 342.33444 204.013957 
L 347.160143 202.810017 
L 351.985833 198.080256 
L 356.81155 191.364777 
L 361.637255 182.905932 
L 366.462951 169.568787 
L 371.288664 167.481438 
L 376.114365 159.866913 
L 380.940067 145.020935 
L 385.765775 139.110688 
L 390.591481 129.463539 
L 395.417182 121.0516 
L 400.242889 110.904112 
L 405.068593 100.975523 
L 409.894296 94.02551 
L 414.72 86.074821 
" clip-path="url(#pc0678b5dcf)" style="fill: none; stroke: #8b0000; stroke-width: 1.5; stroke-linecap: square"/>
   </g>
   <g id="line2d_17">
    <path d="M 57.6 302.650976 
L 62.219109 301.486126 
L 67.261945 301.493944 
L 71.942128 301.345406 
L 76.902598 301.47049 
L 81.6828 301.462673 
L 86.474973 300.524538 
L 91.367206 300.524538 
L 96.144749 300.610534 
L 101.029151 300.352547 
L 105.824883 299.648946 
L 110.669803 299.688035 
L 115.492139 299.625493 
L 120.350214 299.641128 
L 125.165163 299.336235 
L 129.990867 298.843714 
L 134.818816 298.437189 
L 139.649701 298.843714 
L 144.469829 298.749901 
L 149.30142 297.866491 
L 154.129401 297.866491 
L 158.952852 297.897762 
L 163.775581 297.51469 
L 168.608465 296.654734 
L 173.429695 296.920538 
L 178.258896 296.850178 
L 183.082638 296.514013 
L 187.908582 296.732912 
L 192.737117 295.052087 
L 197.563201 294.86446 
L 202.388132 294.4423 
L 207.213943 294.340669 
L 212.038846 292.526942 
L 216.865406 292.25332 
L 221.691748 291.455905 
L 226.516827 291.025927 
L 231.343037 290.853936 
L 236.168624 287.726821 
L 240.994634 288.539871 
L 245.820004 287.687732 
L 250.645574 286.13981 
L 255.471362 284.271359 
L 260.29729 284.029008 
L 265.122867 282.739073 
L 269.948834 281.800938 
L 274.774373 278.50965 
L 279.600146 276.492661 
L 284.425909 275.202726 
L 289.251561 274.202049 
L 294.077367 272.349234 
L 298.903017 269.401928 
L 303.728762 267.760193 
L 308.554501 266.587525 
L 313.380215 265.938648 
L 318.205893 262.389373 
L 323.031607 258.44139 
L 327.857314 258.933911 
L 332.683017 255.548809 
L 337.508716 254.266692 
L 342.33444 246.745981 
L 347.160143 242.000584 
L 351.985833 238.224593 
L 356.81155 209.025158 
L 361.637255 210.57308 
L 366.462951 206.023128 
L 371.288664 191.435137 
L 376.114365 184.125506 
L 380.940067 167.645611 
L 385.765775 139.407764 
L 390.591481 136.038298 
L 395.417182 129.666801 
L 400.242889 111.193371 
L 405.068593 84.792704 
L 409.894296 73.222379 
L 414.72 53.959351 
" clip-path="url(#pc0678b5dcf)" style="fill: none; stroke: #00008b; stroke-width: 1.5; stroke-linecap: square"/>
   </g>
   <g id="line2d_18">
    <path d="M 57.6 300.821614 
L 62.219109 300.876339 
L 67.261945 297.139436 
L 71.942128 296.27948 
L 76.902598 298.765536 
L 81.6828 300.141467 
L 86.474973 297.764859 
L 91.367206 294.403211 
L 96.144749 296.005857 
L 101.029151 298.163567 
L 105.824883 297.983757 
L 110.669803 293.934144 
L 115.492139 294.027957 
L 120.350214 295.638421 
L 125.165163 297.467784 
L 129.990867 294.919185 
L 134.818816 291.596625 
L 139.649701 293.269632 
L 144.469829 295.786959 
L 149.30142 293.863784 
L 154.129401 291.018109 
L 158.952852 291.471541 
L 163.775581 293.902873 
L 168.608465 295.458612 
L 173.429695 291.635714 
L 178.258896 288.696226 
L 183.082638 291.526265 
L 187.908582 293.691792 
L 192.737117 292.010968 
L 197.563201 287.187393 
L 202.388132 286.171081 
L 207.213943 290.431775 
L 212.038846 291.127558 
L 216.865406 285.623836 
L 221.691748 283.473945 
L 226.516827 286.663602 
L 231.343037 290.040886 
L 236.168624 285.553476 
L 240.994634 280.659541 
L 245.820004 282.762526 
L 250.645574 286.303984 
L 255.471362 285.021866 
L 260.29729 277.141537 
L 265.122867 274.62421 
L 269.948834 276.578656 
L 274.774373 279.909034 
L 279.600146 273.607897 
L 284.425909 266.11064 
L 289.251561 268.768687 
L 294.077367 271.23129 
L 298.903017 269.18303 
L 303.728762 258.83228 
L 308.554501 258.707195 
L 313.380215 262.18611 
L 318.205893 260.88054 
L 323.031607 242.196029 
L 327.857314 246.206554 
L 332.683017 250.435976 
L 337.508716 250.334345 
L 342.33444 245.737486 
L 347.160143 231.759283 
L 351.985833 225.872489 
L 356.81155 225.309609 
L 361.637255 216.037713 
L 366.462951 203.779423 
L 371.288664 190.160838 
L 376.114365 183.625168 
L 380.940067 178.441975 
L 385.765775 155.723486 
L 390.591481 146.021612 
L 395.417182 140.431894 
L 400.242889 128.619218 
L 405.068593 132.872094 
L 409.894296 110.849388 
L 414.72 86.457892 
" clip-path="url(#pc0678b5dcf)" style="fill: none; stroke: #006400; stroke-width: 1.5; stroke-linecap: square"/>
   </g>
   <g id="line2d_19">
    <path d="M 57.6 299.641128 
L 62.219109 299.641128 
L 67.261945 296.107489 
L 71.942128 295.435159 
L 76.902598 297.522508 
L 81.6828 298.60918 
L 86.474973 296.396747 
L 91.367206 293.402534 
L 96.144749 294.786283 
L 101.029151 295.919862 
L 105.824883 295.427341 
L 110.669803 292.95692 
L 115.492139 292.589484 
L 120.350214 294.207766 
L 125.165163 296.146577 
L 129.990867 293.48853 
L 134.818816 290.572495 
L 139.649701 292.4644 
L 144.469829 294.614291 
L 149.30142 293.707428 
L 154.129401 289.423281 
L 158.952852 289.689085 
L 163.775581 292.292408 
L 168.608465 294.113953 
L 173.429695 289.259107 
L 178.258896 287.062309 
L 183.082638 289.149658 
L 187.908582 291.487176 
L 192.737117 289.915801 
L 197.563201 285.420574 
L 202.388132 286.452522 
L 207.213943 289.00112 
L 212.038846 289.407645 
L 216.865406 284.724791 
L 221.691748 283.270682 
L 226.516827 285.842734 
L 231.343037 288.125528 
L 236.168624 284.412079 
L 240.994634 281.292782 
L 245.820004 283.153415 
L 250.645574 285.311125 
L 255.471362 285.006231 
L 260.29729 278.564374 
L 265.122867 278.830179 
L 269.948834 280.995706 
L 274.774373 282.230916 
L 279.600146 277.83732 
L 284.425909 273.678257 
L 289.251561 274.749294 
L 294.077367 275.562344 
L 298.903017 271.332921 
L 303.728762 266.352991 
L 308.554501 256.588575 
L 313.380215 261.701408 
L 318.205893 261.099438 
L 323.031607 260.552193 
L 327.857314 256.698024 
L 332.683017 257.3469 
L 337.508716 260.176939 
L 342.33444 255.916245 
L 347.160143 248.848966 
L 351.985833 246.605261 
L 356.81155 252.249703 
L 361.637255 247.160324 
L 366.462951 237.857157 
L 371.288664 232.728689 
L 376.114365 232.767778 
L 380.940067 237.255187 
L 385.765775 227.482954 
L 390.591481 217.64036 
L 395.417182 214.958859 
L 400.242889 222.393574 
L 405.068593 219.665166 
L 409.894296 204.670651 
L 414.72 203.130547 
" clip-path="url(#pc0678b5dcf)" style="fill: none; stroke: #ffa500; stroke-width: 1.5; stroke-linecap: square"/>
   </g>
   <g id="line2d_20">
    <path d="M 57.6 303.065319 
L 62.219109 303.503115 
L 67.261945 303.682924 
L 71.942128 302.901146 
L 76.902598 303.393666 
L 81.6828 303.581293 
L 86.474973 303.065319 
L 91.367206 301.282864 
L 96.144749 299.820937 
L 101.029151 298.374647 
L 105.824883 297.83522 
L 110.669803 297.65541 
L 115.492139 297.819584 
L 120.350214 298.210473 
L 125.165163 298.140113 
L 129.990867 298.937527 
L 134.818816 298.874985 
L 139.649701 299.602039 
L 144.469829 299.641128 
L 149.30142 299.81312 
L 154.129401 300.063289 
L 158.952852 300.047653 
L 163.775581 300.180556 
L 168.608465 300.172738 
L 173.429695 300.039835 
L 178.258896 297.999393 
L 183.082638 296.295115 
L 187.908582 294.567384 
L 192.737117 293.660521 
L 197.563201 293.433805 
L 202.388132 293.644886 
L 207.213943 293.934144 
L 212.038846 294.418847 
L 216.865406 294.700287 
L 221.691748 294.622109 
L 226.516827 295.052087 
L 231.343037 295.138083 
L 236.168624 295.32571 
L 240.994634 295.224079 
L 245.820004 295.247532 
L 250.645574 295.263168 
L 255.471362 295.169354 
L 260.29729 294.270309 
L 265.122867 292.824018 
L 269.948834 290.306691 
L 274.774373 287.265571 
L 279.600146 286.030361 
L 284.425909 285.131315 
L 289.251561 285.46748 
L 294.077367 285.686378 
L 298.903017 286.100721 
L 303.728762 286.49161 
L 308.554501 285.060955 
L 313.380215 285.576929 
L 318.205893 287.124851 
L 323.031607 286.608877 
L 327.857314 286.272712 
L 332.683017 284.693519 
L 337.508716 284.013372 
L 342.33444 285.162587 
L 347.160143 283.966465 
L 351.985833 278.58001 
L 356.81155 272.763576 
L 361.637255 267.807099 
L 366.462951 260.700731 
L 371.288664 260.497468 
L 376.114365 257.651794 
L 380.940067 257.769061 
L 385.765775 255.056289 
L 390.591481 253.258198 
L 395.417182 254.188514 
L 400.242889 251.991716 
L 405.068593 249.607291 
L 409.894296 249.153859 
L 414.72 247.965556 
" clip-path="url(#pc0678b5dcf)" style="fill: none; stroke: #800080; stroke-width: 1.5; stroke-linecap: square"/>
   </g>
   <g id="line2d_21">
    <path d="M 57.6 303.213857 
L 62.219109 303.6282 
L 67.261945 303.706378 
L 71.942128 302.979323 
L 76.902598 303.385848 
L 81.6828 303.573475 
L 86.474973 303.034048 
L 91.367206 301.290681 
L 96.144749 299.578586 
L 101.029151 298.202655 
L 105.824883 297.72577 
L 110.669803 297.83522 
L 115.492139 297.843037 
L 120.350214 298.249562 
L 125.165163 298.765536 
L 129.990867 298.960981 
L 134.818816 299.062612 
L 139.649701 299.602039 
L 144.469829 299.508226 
L 149.30142 299.781848 
L 154.129401 300.016382 
L 158.952852 300.078924 
L 163.775581 300.102378 
L 168.608465 300.141467 
L 173.429695 300.055471 
L 178.258896 298.249562 
L 183.082638 295.669692 
L 187.908582 294.403211 
L 192.737117 293.707428 
L 197.563201 293.410352 
L 202.388132 293.504165 
L 207.213943 293.76997 
L 212.038846 294.481389 
L 216.865406 294.551749 
L 221.691748 294.93482 
L 226.516827 295.153719 
L 231.343037 295.317892 
L 236.168624 295.349163 
L 240.994634 295.364799 
L 245.820004 295.427341 
L 250.645574 295.349163 
L 255.471362 294.841007 
L 260.29729 294.817554 
L 265.122867 292.863107 
L 269.948834 290.369233 
L 274.774373 287.672096 
L 279.600146 285.811463 
L 284.425909 285.060955 
L 289.251561 285.514387 
L 294.077367 286.053814 
L 298.903017 286.171081 
L 303.728762 286.303984 
L 308.554501 286.905953 
L 313.380215 287.117033 
L 318.205893 287.343749 
L 323.031607 287.02322 
L 327.857314 286.554153 
L 332.683017 286.640148 
L 337.508716 286.178899 
L 342.33444 285.412756 
L 347.160143 283.622483 
L 351.985833 279.39306 
L 356.81155 273.295186 
L 361.637255 267.814917 
L 366.462951 261.122891 
L 371.288664 261.23234 
L 376.114365 259.019907 
L 380.940067 257.213998 
L 385.765775 256.119508 
L 390.591481 253.547456 
L 395.417182 253.946163 
L 400.242889 253.633451 
L 405.068593 251.358475 
L 409.894296 247.856107 
L 414.72 247.496488 
" clip-path="url(#pc0678b5dcf)" style="fill: none; stroke: #00ffff; stroke-width: 1.5; stroke-linecap: square"/>
   </g>
   <g id="line2d_22">
    <path d="M 189.808324 307.584 
L 189.808324 41.472 
" clip-path="url(#pc0678b5dcf)" style="fill: none; stroke-dasharray: 5.55,2.4; stroke-dashoffset: 0; stroke: #000000; stroke-width: 1.5"/>
   </g>
   <g id="line2d_23">
    <path d="M 275.027262 307.584 
L 275.027262 41.472 
" clip-path="url(#pc0678b5dcf)" style="fill: none; stroke-dasharray: 5.55,2.4; stroke-dashoffset: 0; stroke: #000000; stroke-width: 1.5"/>
   </g>
   <g id="line2d_24">
    <path d="M 338.941466 307.584 
L 338.941466 41.472 
" clip-path="url(#pc0678b5dcf)" style="fill: none; stroke-dasharray: 5.55,2.4; stroke-dashoffset: 0; stroke: #000000; stroke-width: 1.5"/>
   </g>
   <g id="patch_3">
    <path d="M 57.6 307.584 
L 57.6 41.472 
" style="fill: none; stroke: #000000; stroke-width: 0.8; stroke-linejoin: miter; stroke-linecap: square"/>
   </g>
   <g id="patch_4">
    <path d="M 414.72 307.584 
L 414.72 41.472 
" style="fill: none; stroke: #000000; stroke-width: 0.8; stroke-linejoin: miter; stroke-linecap: square"/>
   </g>
   <g id="patch_5">
    <path d="M 57.6 307.584 
L 414.72 307.584 
" style="fill: none; stroke: #000000; stroke-width: 0.8; stroke-linejoin: miter; stroke-linecap: square"/>
   </g>
   <g id="patch_6">
    <path d="M 57.6 41.472 
L 414.72 41.472 
" style="fill: none; stroke: #000000; stroke-width: 0.8; stroke-linejoin: miter; stroke-linecap: square"/>
   </g>
   <g id="text_18">
    <!-- Binary search -->
    <g transform="translate(195.045 29.472) scale(0.12 -0.12)">
     <defs>
      <path id="DejaVuSans-42" d="M 1259 2228 
L 1259 519 
L 2272 519 
Q 2781 519 3026 730 
Q 3272 941 3272 1375 
Q 3272 1813 3026 2020 
Q 2781 2228 2272 2228 
L 1259 2228 
z
M 1259 4147 
L 1259 2741 
L 2194 2741 
Q 2656 2741 2882 2914 
Q 3109 3088 3109 3444 
Q 3109 3797 2882 3972 
Q 2656 4147 2194 4147 
L 1259 4147 
z
M 628 4666 
L 2241 4666 
Q 2963 4666 3353 4366 
Q 3744 4066 3744 3513 
Q 3744 3084 3544 2831 
Q 3344 2578 2956 2516 
Q 3422 2416 3680 2098 
Q 3938 1781 3938 1306 
Q 3938 681 3513 340 
Q 3088 0 2303 0 
L 628 0 
L 628 4666 
z
" transform="scale(0.015625)"/>
      <path id="DejaVuSans-68" d="M 3513 2113 
L 3513 0 
L 2938 0 
L 2938 2094 
Q 2938 2591 2744 2837 
Q 2550 3084 2163 3084 
Q 1697 3084 1428 2787 
Q 1159 2491 1159 1978 
L 1159 0 
L 581 0 
L 581 4863 
L 1159 4863 
L 1159 2956 
Q 1366 3272 1645 3428 
Q 1925 3584 2291 3584 
Q 2894 3584 3203 3211 
Q 3513 2838 3513 2113 
z
" transform="scale(0.015625)"/>
     </defs>
     <use xlink:href="#DejaVuSans-42"/>
     <use xlink:href="#DejaVuSans-69" x="68.603516"/>
     <use xlink:href="#DejaVuSans-6e" x="96.386719"/>
     <use xlink:href="#DejaVuSans-61" x="159.765625"/>
     <use xlink:href="#DejaVuSans-72" x="221.044922"/>
     <use xlink:href="#DejaVuSans-79" x="262.158203"/>
     <use xlink:href="#DejaVuSans-20" x="321.337891"/>
     <use xlink:href="#DejaVuSans-73" x="353.125"/>
     <use xlink:href="#DejaVuSans-65" x="405.224609"/>
     <use xlink:href="#DejaVuSans-61" x="466.748047"/>
     <use xlink:href="#DejaVuSans-72" x="528.027344"/>
     <use xlink:href="#DejaVuSans-63" x="566.890625"/>
     <use xlink:href="#DejaVuSans-68" x="621.871094"/>
    </g>
   </g>
   <g id="legend_1">
    <g id="patch_7">
     <path d="M 64.6 137.818875 
L 271.89375 137.818875 
Q 273.89375 137.818875 273.89375 135.818875 
L 273.89375 48.472 
Q 273.89375 46.472 271.89375 46.472 
L 64.6 46.472 
Q 62.6 46.472 62.6 48.472 
L 62.6 135.818875 
Q 62.6 137.818875 64.6 137.818875 
z
" style="fill: #ffffff; opacity: 0.8; stroke: #cccccc; stroke-linejoin: miter"/>
    </g>
    <g id="line2d_25">
     <path d="M 66.6 54.570438 
L 76.6 54.570438 
L 86.6 54.570438 
" style="fill: none; stroke: #8b0000; stroke-width: 1.5; stroke-linecap: square"/>
    </g>
    <g id="text_19">
     <!-- std::lower_bound -->
     <g transform="translate(94.6 58.070438) scale(0.1 -0.1)">
      <defs>
       <path id="DejaVuSans-64" d="M 2906 2969 
L 2906 4863 
L 3481 4863 
L 3481 0 
L 2906 0 
L 2906 525 
Q 2725 213 2448 61 
Q 2172 -91 1784 -91 
Q 1150 -91 751 415 
Q 353 922 353 1747 
Q 353 2572 751 3078 
Q 1150 3584 1784 3584 
Q 2172 3584 2448 3432 
Q 2725 3281 2906 2969 
z
M 947 1747 
Q 947 1113 1208 752 
Q 1469 391 1925 391 
Q 2381 391 2643 752 
Q 2906 1113 2906 1747 
Q 2906 2381 2643 2742 
Q 2381 3103 1925 3103 
Q 1469 3103 1208 2742 
Q 947 2381 947 1747 
z
" transform="scale(0.015625)"/>
       <path id="DejaVuSans-3a" d="M 750 794 
L 1409 794 
L 1409 0 
L 750 0 
L 750 794 
z
M 750 3309 
L 1409 3309 
L 1409 2516 
L 750 2516 
L 750 3309 
z
" transform="scale(0.015625)"/>
       <path id="DejaVuSans-6c" d="M 603 4863 
L 1178 4863 
L 1178 0 
L 603 0 
L 603 4863 
z
" transform="scale(0.015625)"/>
       <path id="DejaVuSans-6f" d="M 1959 3097 
Q 1497 3097 1228 2736 
Q 959 2375 959 1747 
Q 959 1119 1226 758 
Q 1494 397 1959 397 
Q 2419 397 2687 759 
Q 2956 1122 2956 1747 
Q 2956 2369 2687 2733 
Q 2419 3097 1959 3097 
z
M 1959 3584 
Q 2709 3584 3137 3096 
Q 3566 2609 3566 1747 
Q 3566 888 3137 398 
Q 2709 -91 1959 -91 
Q 1206 -91 779 398 
Q 353 888 353 1747 
Q 353 2609 779 3096 
Q 1206 3584 1959 3584 
z
" transform="scale(0.015625)"/>
       <path id="DejaVuSans-77" d="M 269 3500 
L 844 3500 
L 1563 769 
L 2278 3500 
L 2956 3500 
L 3675 769 
L 4391 3500 
L 4966 3500 
L 4050 0 
L 3372 0 
L 2619 2869 
L 1863 0 
L 1184 0 
L 269 3500 
z
" transform="scale(0.015625)"/>
       <path id="DejaVuSans-5f" d="M 3263 -1063 
L 3263 -1509 
L -63 -1509 
L -63 -1063 
L 3263 -1063 
z
" transform="scale(0.015625)"/>
       <path id="DejaVuSans-62" d="M 3116 1747 
Q 3116 2381 2855 2742 
Q 2594 3103 2138 3103 
Q 1681 3103 1420 2742 
Q 1159 2381 1159 1747 
Q 1159 1113 1420 752 
Q 1681 391 2138 391 
Q 2594 391 2855 752 
Q 3116 1113 3116 1747 
z
M 1159 2969 
Q 1341 3281 1617 3432 
Q 1894 3584 2278 3584 
Q 2916 3584 3314 3078 
Q 3713 2572 3713 1747 
Q 3713 922 3314 415 
Q 2916 -91 2278 -91 
Q 1894 -91 1617 61 
Q 1341 213 1159 525 
L 1159 0 
L 581 0 
L 581 4863 
L 1159 4863 
L 1159 2969 
z
" transform="scale(0.015625)"/>
       <path id="DejaVuSans-75" d="M 544 1381 
L 544 3500 
L 1119 3500 
L 1119 1403 
Q 1119 906 1312 657 
Q 1506 409 1894 409 
Q 2359 409 2629 706 
Q 2900 1003 2900 1516 
L 2900 3500 
L 3475 3500 
L 3475 0 
L 2900 0 
L 2900 538 
Q 2691 219 2414 64 
Q 2138 -91 1772 -91 
Q 1169 -91 856 284 
Q 544 659 544 1381 
z
M 1991 3584 
L 1991 3584 
z
" transform="scale(0.015625)"/>
      </defs>
      <use xlink:href="#DejaVuSans-73"/>
      <use xlink:href="#DejaVuSans-74" x="52.099609"/>
      <use xlink:href="#DejaVuSans-64" x="91.308594"/>
      <use xlink:href="#DejaVuSans-3a" x="154.785156"/>
      <use xlink:href="#DejaVuSans-3a" x="188.476562"/>
      <use xlink:href="#DejaVuSans-6c" x="222.167969"/>
      <use xlink:href="#DejaVuSans-6f" x="249.951172"/>
      <use xlink:href="#DejaVuSans-77" x="311.132812"/>
      <use xlink:href="#DejaVuSans-65" x="392.919922"/>
      <use xlink:href="#DejaVuSans-72" x="454.443359"/>
      <use xlink:href="#DejaVuSans-5f" x="495.556641"/>
      <use xlink:href="#DejaVuSans-62" x="545.556641"/>
      <use xlink:href="#DejaVuSans-6f" x="609.033203"/>
      <use xlink:href="#DejaVuSans-75" x="670.214844"/>
      <use xlink:href="#DejaVuSans-6e" x="733.59375"/>
      <use xlink:href="#DejaVuSans-64" x="796.972656"/>
     </g>
    </g>
    <g id="line2d_26">
     <path d="M 66.6 69.526688 
L 76.6 69.526688 
L 86.6 69.526688 
" style="fill: none; stroke: #00008b; stroke-width: 1.5; stroke-linecap: square"/>
    </g>
    <g id="text_20">
     <!-- branchless -->
     <g transform="translate(94.6 73.026688) scale(0.1 -0.1)">
      <use xlink:href="#DejaVuSans-62"/>
      <use xlink:href="#DejaVuSans-72" x="63.476562"/>
      <use xlink:href="#DejaVuSans-61" x="104.589844"/>
      <use xlink:href="#DejaVuSans-6e" x="165.869141"/>
      <use xlink:href="#DejaVuSans-63" x="229.248047"/>
      <use xlink:href="#DejaVuSans-68" x="284.228516"/>
      <use xlink:href="#DejaVuSans-6c" x="347.607422"/>
      <use xlink:href="#DejaVuSans-65" x="375.390625"/>
      <use xlink:href="#DejaVuSans-73" x="436.914062"/>
      <use xlink:href="#DejaVuSans-73" x="489.013672"/>
     </g>
    </g>
    <g id="line2d_27">
     <path d="M 66.6 84.204813 
L 76.6 84.204813 
L 86.6 84.204813 
" style="fill: none; stroke: #006400; stroke-width: 1.5; stroke-linecap: square"/>
    </g>
    <g id="text_21">
     <!-- eytzinger -->
     <g transform="translate(94.6 87.704813) scale(0.1 -0.1)">
      <defs>
       <path id="DejaVuSans-67" d="M 2906 1791 
Q 2906 2416 2648 2759 
Q 2391 3103 1925 3103 
Q 1463 3103 1205 2759 
Q 947 2416 947 1791 
Q 947 1169 1205 825 
Q 1463 481 1925 481 
Q 2391 481 2648 825 
Q 2906 1169 2906 1791 
z
M 3481 434 
Q 3481 -459 3084 -895 
Q 2688 -1331 1869 -1331 
Q 1566 -1331 1297 -1286 
Q 1028 -1241 775 -1147 
L 775 -588 
Q 1028 -725 1275 -790 
Q 1522 -856 1778 -856 
Q 2344 -856 2625 -561 
Q 2906 -266 2906 331 
L 2906 616 
Q 2728 306 2450 153 
Q 2172 0 1784 0 
Q 1141 0 747 490 
Q 353 981 353 1791 
Q 353 2603 747 3093 
Q 1141 3584 1784 3584 
Q 2172 3584 2450 3431 
Q 2728 3278 2906 2969 
L 2906 3500 
L 3481 3500 
L 3481 434 
z
" transform="scale(0.015625)"/>
      </defs>
      <use xlink:href="#DejaVuSans-65"/>
      <use xlink:href="#DejaVuSans-79" x="61.523438"/>
      <use xlink:href="#DejaVuSans-74" x="120.703125"/>
      <use xlink:href="#DejaVuSans-7a" x="159.912109"/>
      <use xlink:href="#DejaVuSans-69" x="212.402344"/>
      <use xlink:href="#DejaVuSans-6e" x="240.185547"/>
      <use xlink:href="#DejaVuSans-67" x="303.564453"/>
      <use xlink:href="#DejaVuSans-65" x="367.041016"/>
      <use xlink:href="#DejaVuSans-72" x="428.564453"/>
     </g>
    </g>
    <g id="line2d_28">
     <path d="M 66.6 98.882938 
L 76.6 98.882938 
L 86.6 98.882938 
" style="fill: none; stroke: #ffa500; stroke-width: 1.5; stroke-linecap: square"/>
    </g>
    <g id="text_22">
     <!-- eytzinger (with prefetching) -->
     <g transform="translate(94.6 102.382938) scale(0.1 -0.1)">
      <defs>
       <path id="DejaVuSans-70" d="M 1159 525 
L 1159 -1331 
L 581 -1331 
L 581 3500 
L 1159 3500 
L 1159 2969 
Q 1341 3281 1617 3432 
Q 1894 3584 2278 3584 
Q 2916 3584 3314 3078 
Q 3713 2572 3713 1747 
Q 3713 922 3314 415 
Q 2916 -91 2278 -91 
Q 1894 -91 1617 61 
Q 1341 213 1159 525 
z
M 3116 1747 
Q 3116 2381 2855 2742 
Q 2594 3103 2138 3103 
Q 1681 3103 1420 2742 
Q 1159 2381 1159 1747 
Q 1159 1113 1420 752 
Q 1681 391 2138 391 
Q 2594 391 2855 752 
Q 3116 1113 3116 1747 
z
" transform="scale(0.015625)"/>
       <path id="DejaVuSans-66" d="M 2375 4863 
L 2375 4384 
L 1825 4384 
Q 1516 4384 1395 4259 
Q 1275 4134 1275 3809 
L 1275 3500 
L 2222 3500 
L 2222 3053 
L 1275 3053 
L 1275 0 
L 697 0 
L 697 3053 
L 147 3053 
L 147 3500 
L 697 3500 
L 697 3744 
Q 697 4328 969 4595 
Q 1241 4863 1831 4863 
L 2375 4863 
z
" transform="scale(0.015625)"/>
      </defs>
      <use xlink:href="#DejaVuSans-65"/>
      <use xlink:href="#DejaVuSans-79" x="61.523438"/>
      <use xlink:href="#DejaVuSans-74" x="120.703125"/>
      <use xlink:href="#DejaVuSans-7a" x="159.912109"/>
      <use xlink:href="#DejaVuSans-69" x="212.402344"/>
      <use xlink:href="#DejaVuSans-6e" x="240.185547"/>
      <use xlink:href="#DejaVuSans-67" x="303.564453"/>
      <use xlink:href="#DejaVuSans-65" x="367.041016"/>
      <use xlink:href="#DejaVuSans-72" x="428.564453"/>
      <use xlink:href="#DejaVuSans-20" x="469.677734"/>
      <use xlink:href="#DejaVuSans-28" x="501.464844"/>
      <use xlink:href="#DejaVuSans-77" x="540.478516"/>
      <use xlink:href="#DejaVuSans-69" x="622.265625"/>
      <use xlink:href="#DejaVuSans-74" x="650.048828"/>
      <use xlink:href="#DejaVuSans-68" x="689.257812"/>
      <use xlink:href="#DejaVuSans-20" x="752.636719"/>
      <use xlink:href="#DejaVuSans-70" x="784.423828"/>
      <use xlink:href="#DejaVuSans-72" x="847.900391"/>
      <use xlink:href="#DejaVuSans-65" x="886.763672"/>
      <use xlink:href="#DejaVuSans-66" x="948.287109"/>
      <use xlink:href="#DejaVuSans-65" x="983.492188"/>
      <use xlink:href="#DejaVuSans-74" x="1045.015625"/>
      <use xlink:href="#DejaVuSans-63" x="1084.224609"/>
      <use xlink:href="#DejaVuSans-68" x="1139.205078"/>
      <use xlink:href="#DejaVuSans-69" x="1202.583984"/>
      <use xlink:href="#DejaVuSans-6e" x="1230.367188"/>
      <use xlink:href="#DejaVuSans-67" x="1293.746094"/>
      <use xlink:href="#DejaVuSans-29" x="1357.222656"/>
     </g>
    </g>
    <g id="line2d_29">
     <path d="M 66.6 113.561063 
L 76.6 113.561063 
L 86.6 113.561063 
" style="fill: none; stroke: #800080; stroke-width: 1.5; stroke-linecap: square"/>
    </g>
    <g id="text_23">
     <!-- B-tree (with SIMD) -->
     <g transform="translate(94.6 117.061063) scale(0.1 -0.1)">
      <defs>
       <path id="DejaVuSans-2d" d="M 313 2009 
L 1997 2009 
L 1997 1497 
L 313 1497 
L 313 2009 
z
" transform="scale(0.015625)"/>
       <path id="DejaVuSans-53" d="M 3425 4513 
L 3425 3897 
Q 3066 4069 2747 4153 
Q 2428 4238 2131 4238 
Q 1616 4238 1336 4038 
Q 1056 3838 1056 3469 
Q 1056 3159 1242 3001 
Q 1428 2844 1947 2747 
L 2328 2669 
Q 3034 2534 3370 2195 
Q 3706 1856 3706 1288 
Q 3706 609 3251 259 
Q 2797 -91 1919 -91 
Q 1588 -91 1214 -16 
Q 841 59 441 206 
L 441 856 
Q 825 641 1194 531 
Q 1563 422 1919 422 
Q 2459 422 2753 634 
Q 3047 847 3047 1241 
Q 3047 1584 2836 1778 
Q 2625 1972 2144 2069 
L 1759 2144 
Q 1053 2284 737 2584 
Q 422 2884 422 3419 
Q 422 4038 858 4394 
Q 1294 4750 2059 4750 
Q 2388 4750 2728 4690 
Q 3069 4631 3425 4513 
z
" transform="scale(0.015625)"/>
       <path id="DejaVuSans-49" d="M 628 4666 
L 1259 4666 
L 1259 0 
L 628 0 
L 628 4666 
z
" transform="scale(0.015625)"/>
       <path id="DejaVuSans-4d" d="M 628 4666 
L 1569 4666 
L 2759 1491 
L 3956 4666 
L 4897 4666 
L 4897 0 
L 4281 0 
L 4281 4097 
L 3078 897 
L 2444 897 
L 1241 4097 
L 1241 0 
L 628 0 
L 628 4666 
z
" transform="scale(0.015625)"/>
       <path id="DejaVuSans-44" d="M 1259 4147 
L 1259 519 
L 2022 519 
Q 2988 519 3436 956 
Q 3884 1394 3884 2338 
Q 3884 3275 3436 3711 
Q 2988 4147 2022 4147 
L 1259 4147 
z
M 628 4666 
L 1925 4666 
Q 3281 4666 3915 4102 
Q 4550 3538 4550 2338 
Q 4550 1131 3912 565 
Q 3275 0 1925 0 
L 628 0 
L 628 4666 
z
" transform="scale(0.015625)"/>
      </defs>
      <use xlink:href="#DejaVuSans-42"/>
      <use xlink:href="#DejaVuSans-2d" x="68.603516"/>
      <use xlink:href="#DejaVuSans-74" x="104.6875"/>
      <use xlink:href="#DejaVuSans-72" x="143.896484"/>
      <use xlink:href="#DejaVuSans-65" x="182.759766"/>
      <use xlink:href="#DejaVuSans-65" x="244.283203"/>
      <use xlink:href="#DejaVuSans-20" x="305.806641"/>
      <use xlink:href="#DejaVuSans-28" x="337.59375"/>
      <use xlink:href="#DejaVuSans-77" x="376.607422"/>
      <use xlink:href="#DejaVuSans-69" x="458.394531"/>
      <use xlink:href="#DejaVuSans-74" x="486.177734"/>
      <use xlink:href="#DejaVuSans-68" x="525.386719"/>
      <use xlink:href="#DejaVuSans-20" x="588.765625"/>
      <use xlink:href="#DejaVuSans-53" x="620.552734"/>
      <use xlink:href="#DejaVuSans-49" x="684.029297"/>
      <use xlink:href="#DejaVuSans-4d" x="713.521484"/>
      <use xlink:href="#DejaVuSans-44" x="799.800781"/>
      <use xlink:href="#DejaVuSans-29" x="876.802734"/>
     </g>
    </g>
    <g id="line2d_30">
     <path d="M 66.6 128.239188 
L 76.6 128.239188 
L 86.6 128.239188 
" style="fill: none; stroke: #00ffff; stroke-width: 1.5; stroke-linecap: square"/>
    </g>
    <g id="text_24">
     <!-- B-tree (with SIMD and huge pages) -->
     <g transform="translate(94.6 131.739188) scale(0.1 -0.1)">
      <use xlink:href="#DejaVuSans-42"/>
      <use xlink:href="#DejaVuSans-2d" x="68.603516"/>
      <use xlink:href="#DejaVuSans-74" x="104.6875"/>
      <use xlink:href="#DejaVuSans-72" x="143.896484"/>
      <use xlink:href="#DejaVuSans-65" x="182.759766"/>
      <use xlink:href="#DejaVuSans-65" x="244.283203"/>
      <use xlink:href="#DejaVuSans-20" x="305.806641"/>
      <use xlink:href="#DejaVuSans-28" x="337.59375"/>
      <use xlink:href="#DejaVuSans-77" x="376.607422"/>
      <use xlink:href="#DejaVuSans-69" x="458.394531"/>
      <use xlink:href="#DejaVuSans-74" x="486.177734"/>
      <use xlink:href="#DejaVuSans-68" x="525.386719"/>
      <use xlink:href="#DejaVuSans-20" x="588.765625"/>
      <use xlink:href="#DejaVuSans-53" x="620.552734"/>
      <use xlink:href="#DejaVuSans-49" x="684.029297"/>
      <use xlink:href="#DejaVuSans-4d" x="713.521484"/>
      <use xlink:href="#DejaVuSans-44" x="799.800781"/>
      <use xlink:href="#DejaVuSans-20" x="876.802734"/>
      <use xlink:href="#DejaVuSans-61" x="908.589844"/>
      <use xlink:href="#DejaVuSans-6e" x="969.869141"/>
      <use xlink:href="#DejaVuSans-64" x="1033.248047"/>
      <use xlink:href="#DejaVuSans-20" x="1096.724609"/>
      <use xlink:href="#DejaVuSans-68" x="1128.511719"/>
      <use xlink:href="#DejaVuSans-75" x="1191.890625"/>
      <use xlink:href="#DejaVuSans-67" x="1255.269531"/>
      <use xlink:href="#DejaVuSans-65" x="1318.746094"/>
      <use xlink:href="#DejaVuSans-20" x="1380.269531"/>
      <use xlink:href="#DejaVuSans-70" x="1412.056641"/>
      <use xlink:href="#DejaVuSans-61" x="1475.533203"/>
      <use xlink:href="#DejaVuSans-67" x="1536.8125"/>
      <use xlink:href="#DejaVuSans-65" x="1600.289062"/>
      <use xlink:href="#DejaVuSans-73" x="1661.8125"/>
      <use xlink:href="#DejaVuSans-29" x="1713.912109"/>
     </g>
    </g>
   </g>
  </g>
 </g>
 <defs>
  <clipPath id="pc0678b5dcf">
   <rect x="57.6" y="41.472" width="357.12" height="266.112"/>
  </clipPath>
 </defs>
</svg>
